<?xml version="1.0" standalone="no"?>
<svg xmlns="http://www.w3.org/2000/svg" width="780" height="779.5124969482422"><g transform="translate(60,20)"><g class="x axis" transform="translate(0,600)" fill="none" font-size="10" font-family="sans-serif" text-anchor="middle"><path class="domain" stroke="#000" d="M0.5,6V0.5H720.5V6"/><g class="tick" opacity="1" transform="translate(43.51648351648349,0)"><line stroke="#000" y2="6"/><text fill="#000" y="9" dy="-0.5em" dx="-.8em" style="text-anchor: end;" transform="rotate(-90)">S18S19-V5-L-B17-root</text></g><g class="tick" opacity="1" transform="translate(122.63736263736261,0)"><line stroke="#000" y2="6"/><text fill="#000" y="9" dy="-0.5em" dx="-.8em" style="text-anchor: end;" transform="rotate(-90)">S10-V5-Q-B61-calc</text></g><g class="tick" opacity="1" transform="translate(201.75824175824175,0)"><line stroke="#000" y2="6"/><text fill="#000" y="9" dy="-0.5em" dx="-.8em" style="text-anchor: end;" transform="rotate(-90)">S15-V5-R-B78-calc</text></g><g class="tick" opacity="1" transform="translate(280.8791208791209,0)"><line stroke="#000" y2="6"/><text fill="#000" y="9" dy="-0.5em" dx="-.8em" style="text-anchor: end;" transform="rotate(-90)">S20S21-V5-M-B61-root</text></g><g class="tick" opacity="1" transform="translate(360,0)"><line stroke="#000" y2="6"/><text fill="#000" y="9" dy="-0.5em" dx="-.8em" style="text-anchor: end;" transform="rotate(-90)">S22S23-V5-N-B78-root</text></g><g class="tick" opacity="1" transform="translate(439.1208791208791,0)"><line stroke="#000" y2="6"/><text fill="#000" y="9" dy="-0.5em" dx="-.8em" style="text-anchor: end;" transform="rotate(-90)">S14-V5-P-B17-calc</text></g><g class="tick" opacity="1" transform="translate(518.2417582417582,0)"><line stroke="#000" y2="6"/><text fill="#000" y="9" dy="-0.5em" dx="-.8em" style="text-anchor: end;" transform="rotate(-90)">S16S17-V5-K1-G12-root</text></g><g class="tick" opacity="1" transform="translate(597.3626373626372,0)"><line stroke="#000" y2="6"/><text fill="#000" y="9" dy="-0.5em" dx="-.8em" style="text-anchor: end;" transform="rotate(-90)">S16S17-V5-K2-G12-root</text></g><g class="tick" opacity="1" transform="translate(676.4835164835164,0)"><line stroke="#000" y2="6"/><text fill="#000" y="9" dy="-0.5em" dx="-.8em" style="text-anchor: end;" transform="rotate(-90)">S8-V5-O-G12-calc</text></g></g><g class="y axis" fill="none" font-size="10" font-family="sans-serif" text-anchor="end"><path class="domain" stroke="#000" d="M-6,600.5H0.5V0.5H-6"/><g class="tick" opacity="1" transform="translate(0,600.5)"><line stroke="#000" x2="-6"/><text fill="#000" x="-9" dy="0.32em">0%</text></g><g class="tick" opacity="1" transform="translate(0,540.5)"><line stroke="#000" x2="-6"/><text fill="#000" x="-9" dy="0.32em">10%</text></g><g class="tick" opacity="1" transform="translate(0,480.5)"><line stroke="#000" x2="-6"/><text fill="#000" x="-9" dy="0.32em">20%</text></g><g class="tick" opacity="1" transform="translate(0,420.5)"><line stroke="#000" x2="-6"/><text fill="#000" x="-9" dy="0.32em">30%</text></g><g class="tick" opacity="1" transform="translate(0,360.5)"><line stroke="#000" x2="-6"/><text fill="#000" x="-9" dy="0.32em">40%</text></g><g class="tick" opacity="1" transform="translate(0,300.5)"><line stroke="#000" x2="-6"/><text fill="#000" x="-9" dy="0.32em">50%</text></g><g class="tick" opacity="1" transform="translate(0,240.5)"><line stroke="#000" x2="-6"/><text fill="#000" x="-9" dy="0.32em">60%</text></g><g class="tick" opacity="1" transform="translate(0,180.5)"><line stroke="#000" x2="-6"/><text fill="#000" x="-9" dy="0.32em">70%</text></g><g class="tick" opacity="1" transform="translate(0,120.5)"><line stroke="#000" x2="-6"/><text fill="#000" x="-9" dy="0.32em">80%</text></g><g class="tick" opacity="1" transform="translate(0,60.5)"><line stroke="#000" x2="-6"/><text fill="#000" x="-9" dy="0.32em">90%</text></g><g class="tick" opacity="1" transform="translate(0,0.5)"><line stroke="#000" x2="-6"/><text fill="#000" x="-9" dy="0.32em">100%</text></g></g><text id="y-label" text-anchor="middle" style="font: 12px sans-serif;" transform="translate(-30,300)rotate(-90)">Relative Frequency</text><text id="x-label" text-anchor="middle" style="font: 12px sans-serif;" transform="translate(360,739.5124969482422)">Sample</text><g class="layer" style="fill: rgb(102, 194, 165);"><rect x="640.8791208791208" y="0" height="600" width="71.20879120879121"/><rect x="561.7582417582416" y="0" height="599.7531879884821" width="71.20879120879121"/><rect x="482.6373626373626" y="0" height="599.2165640738668" width="71.20879120879121"/><rect x="403.5164835164835" y="0" height="596.5860597439545" width="71.20879120879121"/><rect x="324.3956043956044" y="0" height="596.0572635531565" width="71.20879120879121"/><rect x="245.27472527472526" y="0" height="594.3265148591278" width="71.20879120879121"/><rect x="166.15384615384613" y="0" height="589.5678854512912" width="71.20879120879121"/><rect x="87.03296703296701" y="0" height="583.4862385321101" width="71.20879120879121"/><rect x="7.912087912087884" y="0" height="581.9230769230769" width="71.20879120879121"/></g><g class="layer" style="fill: rgb(252, 141, 98);"><rect x="640.8791208791208" y="600" height="0" width="71.20879120879121"/><rect x="561.7582417582416" y="599.7531879884821" height="0.24681201151793175" width="71.20879120879121"/><rect x="482.6373626373626" y="599.2165640738668" height="0.7834359261331656" width="71.20879120879121"/><rect x="403.5164835164835" y="596.5860597439545" height="3.413940256045521" width="71.20879120879121"/><rect x="324.3956043956044" y="596.0572635531565" height="3.942736446843469" width="71.20879120879121"/><rect x="245.27472527472526" y="594.3265148591278" height="5.210343496719361" width="71.20879120879121"/><rect x="166.15384615384613" y="589.5678854512912" height="10.432114548708796" width="71.20879120879121"/><rect x="87.03296703296701" y="583.4862385321101" height="16.513761467889935" width="71.20879120879121"/><rect x="7.912087912087884" y="581.9230769230769" height="18.076923076923094" width="71.20879120879121"/></g><g class="layer" style="fill: rgb(141, 160, 203);"><rect x="640.8791208791208" y="600" height="0" width="71.20879120879121"/><rect x="561.7582417582416" y="600" height="0" width="71.20879120879121"/><rect x="482.6373626373626" y="600" height="0" width="71.20879120879121"/><rect x="403.5164835164835" y="600" height="0" width="71.20879120879121"/><rect x="324.3956043956044" y="600" height="0" width="71.20879120879121"/><rect x="245.27472527472526" y="599.5368583558471" height="0.46314164415286996" width="71.20879120879121"/><rect x="166.15384615384613" y="600" height="0" width="71.20879120879121"/><rect x="87.03296703296701" y="600" height="0" width="71.20879120879121"/><rect x="7.912087912087884" y="600" height="0" width="71.20879120879121"/></g></g></svg>