<?xml version="1.0" standalone="no"?>
<svg xmlns="http://www.w3.org/2000/svg" width="780" height="779.5124969482422"><g transform="translate(60,20)"><g class="x axis" transform="translate(0,600)" fill="none" font-size="10" font-family="sans-serif" text-anchor="middle"><path class="domain" stroke="#000" d="M0.5,6V0.5H720.5V6"/><g class="tick" opacity="1" transform="translate(43.51648351648349,0)"><line stroke="#000" y2="6"/><text fill="#000" y="9" dy="-0.5em" dx="-.8em" style="text-anchor: end;" transform="rotate(-90)">S15-V5-R-B78-calc</text></g><g class="tick" opacity="1" transform="translate(122.63736263736261,0)"><line stroke="#000" y2="6"/><text fill="#000" y="9" dy="-0.5em" dx="-.8em" style="text-anchor: end;" transform="rotate(-90)">S8-V5-O-G12-calc</text></g><g class="tick" opacity="1" transform="translate(201.75824175824175,0)"><line stroke="#000" y2="6"/><text fill="#000" y="9" dy="-0.5em" dx="-.8em" style="text-anchor: end;" transform="rotate(-90)">S10-V5-Q-B61-calc</text></g><g class="tick" opacity="1" transform="translate(280.8791208791209,0)"><line stroke="#000" y2="6"/><text fill="#000" y="9" dy="-0.5em" dx="-.8em" style="text-anchor: end;" transform="rotate(-90)">S14-V5-P-B17-calc</text></g><g class="tick" opacity="1" transform="translate(360,0)"><line stroke="#000" y2="6"/><text fill="#000" y="9" dy="-0.5em" dx="-.8em" style="text-anchor: end;" transform="rotate(-90)">S22S23-V5-N-B78-root</text></g><g class="tick" opacity="1" transform="translate(439.1208791208791,0)"><line stroke="#000" y2="6"/><text fill="#000" y="9" dy="-0.5em" dx="-.8em" style="text-anchor: end;" transform="rotate(-90)">S18S19-V5-L-B17-root</text></g><g class="tick" opacity="1" transform="translate(518.2417582417582,0)"><line stroke="#000" y2="6"/><text fill="#000" y="9" dy="-0.5em" dx="-.8em" style="text-anchor: end;" transform="rotate(-90)">S20S21-V5-M-B61-root</text></g><g class="tick" opacity="1" transform="translate(597.3626373626372,0)"><line stroke="#000" y2="6"/><text fill="#000" y="9" dy="-0.5em" dx="-.8em" style="text-anchor: end;" transform="rotate(-90)">S16S17-V5-K2-G12-root</text></g><g class="tick" opacity="1" transform="translate(676.4835164835164,0)"><line stroke="#000" y2="6"/><text fill="#000" y="9" dy="-0.5em" dx="-.8em" style="text-anchor: end;" transform="rotate(-90)">S16S17-V5-K1-G12-root</text></g></g><g class="y axis" fill="none" font-size="10" font-family="sans-serif" text-anchor="end"><path class="domain" stroke="#000" d="M-6,600.5H0.5V0.5H-6"/><g class="tick" opacity="1" transform="translate(0,600.5)"><line stroke="#000" x2="-6"/><text fill="#000" x="-9" dy="0.32em">0%</text></g><g class="tick" opacity="1" transform="translate(0,540.5)"><line stroke="#000" x2="-6"/><text fill="#000" x="-9" dy="0.32em">10%</text></g><g class="tick" opacity="1" transform="translate(0,480.5)"><line stroke="#000" x2="-6"/><text fill="#000" x="-9" dy="0.32em">20%</text></g><g class="tick" opacity="1" transform="translate(0,420.5)"><line stroke="#000" x2="-6"/><text fill="#000" x="-9" dy="0.32em">30%</text></g><g class="tick" opacity="1" transform="translate(0,360.5)"><line stroke="#000" x2="-6"/><text fill="#000" x="-9" dy="0.32em">40%</text></g><g class="tick" opacity="1" transform="translate(0,300.5)"><line stroke="#000" x2="-6"/><text fill="#000" x="-9" dy="0.32em">50%</text></g><g class="tick" opacity="1" transform="translate(0,240.5)"><line stroke="#000" x2="-6"/><text fill="#000" x="-9" dy="0.32em">60%</text></g><g class="tick" opacity="1" transform="translate(0,180.5)"><line stroke="#000" x2="-6"/><text fill="#000" x="-9" dy="0.32em">70%</text></g><g class="tick" opacity="1" transform="translate(0,120.5)"><line stroke="#000" x2="-6"/><text fill="#000" x="-9" dy="0.32em">80%</text></g><g class="tick" opacity="1" transform="translate(0,60.5)"><line stroke="#000" x2="-6"/><text fill="#000" x="-9" dy="0.32em">90%</text></g><g class="tick" opacity="1" transform="translate(0,0.5)"><line stroke="#000" x2="-6"/><text fill="#000" x="-9" dy="0.32em">100%</text></g></g><text id="y-label" text-anchor="middle" style="font: 12px sans-serif;" transform="translate(-30,300)rotate(-90)">Relative Frequency</text><text id="x-label" text-anchor="middle" style="font: 12px sans-serif;" transform="translate(360,739.5124969482422)">Sample</text><g class="layer" style="fill: rgb(102, 194, 165);"><rect x="7.912087912087884" y="0" height="17.48913321401176" width="71.20879120879121"/><rect x="87.03296703296701" y="0" height="62.33307148468191" width="71.20879120879121"/><rect x="166.15384615384613" y="0" height="97.24770642201833" width="71.20879120879121"/><rect x="245.27472527472526" y="0" height="195.5903271692746" width="71.20879120879121"/><rect x="324.3956043956044" y="0" height="199.24900258155367" width="71.20879120879121"/><rect x="403.5164835164835" y="1.1368683772161603e-13" height="222.9487179487179" width="71.20879120879121"/><rect x="482.6373626373626" y="0" height="290.62138170590504" width="71.20879120879121"/><rect x="561.7582417582416" y="0" height="357.8774167009461" width="71.20879120879121"/><rect x="640.8791208791208" y="1.1368683772161603e-13" height="360.6043648573027" width="71.20879120879121"/></g><g class="layer" style="fill: rgb(252, 141, 98);"><rect x="7.912087912087884" y="17.48913321401176" height="279.6727179749425" width="71.20879120879121"/><rect x="87.03296703296701" y="62.33307148468191" height="313.90416339355846" width="71.20879120879121"/><rect x="166.15384615384613" y="97.24770642201833" height="211.98057204533194" width="71.20879120879121"/><rect x="245.27472527472526" y="195.5903271692746" height="134.4238975817923" width="71.20879120879121"/><rect x="324.3956043956044" y="199.24900258155367" height="137.43252757568644" width="71.20879120879121"/><rect x="403.5164835164835" y="222.948717948718" height="25.512820512820497" width="71.20879120879121"/><rect x="482.6373626373626" y="290.62138170590504" height="5.3261289077576635" width="71.20879120879121"/><rect x="561.7582417582416" y="357.8774167009461" height="29.74084738790623" width="71.20879120879121"/><rect x="640.8791208791208" y="360.6043648573028" height="25.181869054280867" width="71.20879120879121"/></g><g class="layer" style="fill: rgb(141, 160, 203);"><rect x="7.912087912087884" y="297.16185118895424" height="99.71874200971615" width="71.20879120879121"/><rect x="87.03296703296701" y="376.2372348782404" height="16.378633150039263" width="71.20879120879121"/><rect x="166.15384615384613" y="309.22827846735026" height="46.735024284943336" width="71.20879120879121"/><rect x="245.27472527472526" y="330.0142247510669" height="19.48790896159312" width="71.20879120879121"/><rect x="324.3956043956044" y="336.6815301572401" height="77.44660877728234" width="71.20879120879121"/><rect x="403.5164835164835" y="248.4615384615385" height="132.4358974358974" width="71.20879120879121"/><rect x="482.6373626373626" y="295.9475106136627" height="64.14511771516788" width="71.20879120879121"/><rect x="561.7582417582416" y="387.61826408885236" height="76.88194158782392" width="71.20879120879121"/><rect x="640.8791208791208" y="385.7862339115837" height="87.7448237269166" width="71.20879120879121"/></g><g class="layer" style="fill: rgb(231, 138, 195);"><rect x="7.912087912087884" y="396.8805931986704" height="48.78547686013809" width="71.20879120879121"/><rect x="87.03296703296701" y="392.61586802827964" height="70.1099764336214" width="71.20879120879121"/><rect x="166.15384615384613" y="355.9633027522936" height="98.65083648138153" width="71.20879120879121"/><rect x="245.27472527472526" y="349.50213371266" height="93.17211948790901" width="71.20879120879121"/><rect x="324.3956043956044" y="414.12813893452244" height="29.00727528749121" width="71.20879120879121"/><rect x="403.5164835164835" y="380.8974358974359" height="35.512820512820554" width="71.20879120879121"/><rect x="482.6373626373626" y="360.0926283288306" height="15.167888846005383" width="71.20879120879121"/><rect x="561.7582417582416" y="464.5002056766763" height="39.36651583710409" width="71.20879120879121"/><rect x="640.8791208791208" y="473.5310576385003" height="34.91885842193625" width="71.20879120879121"/></g><g class="layer" style="fill: rgb(229, 196, 148);"><rect x="7.912087912087884" y="463.61544362055736" height="68.42239836358988" width="71.20879120879121"/><rect x="87.03296703296701" y="519.8743126472899" height="38.76669285153173" width="71.20879120879121"/><rect x="166.15384615384613" y="496.6001079330815" height="38.85590933621154" width="71.20879120879121"/><rect x="245.27472527472526" y="530.4409672830725" height="17.496443812233338" width="71.20879120879121"/><rect x="324.3956043956044" y="545.505749823985" height="0" width="71.20879120879121"/><rect x="403.5164835164835" y="489.1025641025641" height="5.128205128205138" width="71.20879120879121"/><rect x="482.6373626373626" y="466.036279428792" height="0.6947124662292481" width="71.20879120879121"/><rect x="561.7582417582416" y="570.3825586178527" height="0" width="71.20879120879121"/><rect x="640.8791208791208" y="575.3777280358142" height="0" width="71.20879120879121"/></g><g class="layer" style="fill: rgb(166, 216, 84);"><rect x="7.912087912087884" y="445.6660700588085" height="15.494758373817433" width="71.20879120879121"/><rect x="87.03296703296701" y="462.72584446190103" height="44.304791830322074" width="71.20879120879121"/><rect x="166.15384615384613" y="454.61413923367513" height="30.11332973556398" width="71.20879120879121"/><rect x="245.27472527472526" y="442.674253200569" height="71.26600284495015" width="71.20879120879121"/><rect x="324.3956043956044" y="443.13541422201365" height="79.69960103262144" width="71.20879120879121"/><rect x="403.5164835164835" y="416.41025641025647" height="29.615384615384585" width="71.20879120879121"/><rect x="482.6373626373626" y="375.26051717483597" height="62.06098031648014" width="71.20879120879121"/><rect x="561.7582417582416" y="503.86672151378036" height="55.53270259152612" width="71.20879120879121"/><rect x="640.8791208791208" y="508.4499160604365" height="53.609401231113566" width="71.20879120879121"/></g><g class="layer" style="fill: rgb(102, 194, 165);"><rect x="7.912087912087884" y="541.8563027358732" height="0" width="71.20879120879121"/><rect x="87.03296703296701" y="558.6410054988216" height="0" width="71.20879120879121"/><rect x="166.15384615384613" y="553.1570426335672" height="1.8348623853210029" width="71.20879120879121"/><rect x="245.27472527472526" y="554.7652916073969" height="0" width="71.20879120879121"/><rect x="324.3956043956044" y="548.1811781272002" height="8.730344989439118" width="71.20879120879121"/><rect x="403.5164835164835" y="512.1794871794872" height="9.358974358974365" width="71.20879120879121"/><rect x="482.6373626373626" y="488.38286375916636" height="42.724816673099156" width="71.20879120879121"/><rect x="561.7582417582416" y="570.7527766351295" height="4.195804195804271" width="71.20879120879121"/><rect x="640.8791208791208" y="575.7134862898713" height="3.02182428651372" width="71.20879120879121"/></g><g class="layer" style="fill: rgb(255, 217, 47);"><rect x="7.912087912087884" y="461.1608284326259" height="2.454615187931438" width="71.20879120879121"/><rect x="87.03296703296701" y="507.0306362922231" height="12.843676355066805" width="71.20879120879121"/><rect x="166.15384615384613" y="484.7274689692391" height="11.872638963842405" width="71.20879120879121"/><rect x="245.27472527472526" y="513.9402560455192" height="16.500711237553332" width="71.20879120879121"/><rect x="324.3956043956044" y="522.8350152546351" height="22.67073456934986" width="71.20879120879121"/><rect x="403.5164835164835" y="446.02564102564105" height="43.07692307692304" width="71.20879120879121"/><rect x="482.6373626373626" y="437.3214974913161" height="28.71478193747589" width="71.20879120879121"/><rect x="561.7582417582416" y="559.3994241053065" height="10.983134512546258" width="71.20879120879121"/><rect x="640.8791208791208" y="562.0593172915501" height="13.318410744264156" width="71.20879120879121"/></g><g class="layer" style="fill: rgb(141, 160, 203);"><rect x="7.912087912087884" y="541.8563027358732" height="0" width="71.20879120879121"/><rect x="87.03296703296701" y="558.6410054988216" height="0" width="71.20879120879121"/><rect x="166.15384615384613" y="555.8553696708041" height="0.971397733405297" width="71.20879120879121"/><rect x="245.27472527472526" y="554.7652916073969" height="0" width="71.20879120879121"/><rect x="324.3956043956044" y="567.3316122975828" height="10.138465149026047" width="71.20879120879121"/><rect x="403.5164835164835" y="545.2564102564103" height="11.28205128205127" width="71.20879120879121"/><rect x="482.6373626373626" y="543.3809340023157" height="10.883828637591705" width="71.20879120879121"/><rect x="561.7582417582416" y="576.4294529000412" height="6.540518305224168" width="71.20879120879121"/><rect x="640.8791208791208" y="580.1902630106323" height="6.8270844991606054" width="71.20879120879121"/></g><g class="layer" style="fill: rgb(179, 179, 179);"><rect x="7.912087912087884" y="532.0378419841472" height="9.81846075172598" width="71.20879120879121"/><rect x="87.03296703296701" y="558.6410054988216" height="0" width="71.20879120879121"/><rect x="166.15384615384613" y="535.456017269293" height="17.701025364274187" width="71.20879120879121"/><rect x="245.27472527472526" y="547.9374110953058" height="6.827880512091042" width="71.20879120879121"/><rect x="324.3956043956044" y="545.505749823985" height="2.675428303215199" width="71.20879120879121"/><rect x="403.5164835164835" y="494.2307692307692" height="17.948717948717956" width="71.20879120879121"/><rect x="482.6373626373626" y="466.73099189502125" height="21.651871864145107" width="71.20879120879121"/><rect x="561.7582417582416" y="570.3825586178527" height="0.37021801727678394" width="71.20879120879121"/><rect x="640.8791208791208" y="575.3777280358142" height="0.33575825405705473" width="71.20879120879121"/></g><g class="layer" style="fill: rgb(231, 138, 195);"><rect x="7.912087912087884" y="541.8563027358732" height="0.6136537969828169" width="71.20879120879121"/><rect x="87.03296703296701" y="558.6410054988216" height="0" width="71.20879120879121"/><rect x="166.15384615384613" y="556.8267674042094" height="0.7555315704263421" width="71.20879120879121"/><rect x="245.27472527472526" y="554.7652916073969" height="0" width="71.20879120879121"/><rect x="324.3956043956044" y="577.4700774466088" height="10.420089180943364" width="71.20879120879121"/><rect x="403.5164835164835" y="556.5384615384615" height="6.153846153846189" width="71.20879120879121"/><rect x="482.6373626373626" y="554.2647626399074" height="24.662292551138535" width="71.20879120879121"/><rect x="561.7582417582416" y="582.9699712052653" height="0" width="71.20879120879121"/><rect x="640.8791208791208" y="587.0173475097929" height="0" width="71.20879120879121"/></g><g class="layer" style="fill: rgb(179, 179, 179);"><rect x="7.912087912087884" y="556.5839938634621" height="10.432114548708682" width="71.20879120879121"/><rect x="87.03296703296701" y="579.3794186959938" height="0" width="71.20879120879121"/><rect x="166.15384615384613" y="567.835941716136" height="15.542363734484638" width="71.20879120879121"/><rect x="245.27472527472526" y="583.0725462304409" height="3.413940256045521" width="71.20879120879121"/><rect x="324.3956043956044" y="590.7064069467261" height="0" width="71.20879120879121"/><rect x="403.5164835164835" y="562.6923076923077" height="0" width="71.20879120879121"/><rect x="482.6373626373626" y="579.9691238903898" height="0" width="71.20879120879121"/><rect x="561.7582417582416" y="591.4849856026326" height="0" width="71.20879120879121"/><rect x="640.8791208791208" y="596.3066592053722" height="0" width="71.20879120879121"/></g><g class="layer" style="fill: rgb(141, 160, 203);"><rect x="7.912087912087884" y="580.3630784965482" height="9.665047302480275" width="71.20879120879121"/><rect x="87.03296703296701" y="581.0290652003142" height="13.432835820895548" width="71.20879120879121"/><rect x="166.15384615384613" y="592.2288181327577" height="2.2665947112789127" width="71.20879120879121"/><rect x="245.27472527472526" y="593.5988620199147" height="2.5604551920340555" width="71.20879120879121"/><rect x="324.3956043956044" y="594.6491433935696" height="0" width="71.20879120879121"/><rect x="403.5164835164835" y="580.7692307692307" height="0" width="71.20879120879121"/><rect x="482.6373626373626" y="585.1794673871092" height="0" width="71.20879120879121"/><rect x="561.7582417582416" y="591.4849856026326" height="0" width="71.20879120879121"/><rect x="640.8791208791208" y="597.0900951315053" height="0" width="71.20879120879121"/></g><g class="layer" style="fill: rgb(255, 217, 47);"><rect x="7.912087912087884" y="545.0779851700332" height="11.50600869342884" width="71.20879120879121"/><rect x="87.03296703296701" y="559.7014925373135" height="10.487038491751719" width="71.20879120879121"/><rect x="166.15384615384613" y="560.4964921748516" height="3.130059363194846" width="71.20879120879121"/><rect x="245.27472527472526" y="561.877667140825" height="2.987197724039902" width="71.20879120879121"/><rect x="324.3956043956044" y="587.8901666275522" height="2.8162403191739713" width="71.20879120879121"/><rect x="403.5164835164835" y="562.6923076923077" height="0" width="71.20879120879121"/><rect x="482.6373626373626" y="578.927055191046" height="1.0420686993438721" width="71.20879120879121"/><rect x="561.7582417582416" y="591.4849856026326" height="0" width="71.20879120879121"/><rect x="640.8791208791208" y="595.747062115277" height="0.559597090095167" width="71.20879120879121"/></g><g class="layer" style="fill: rgb(166, 216, 84);"><rect x="7.912087912087884" y="542.469956532856" height="2.608028637177199" width="71.20879120879121"/><rect x="87.03296703296701" y="558.6410054988216" height="1.0604870384918286" width="71.20879120879121"/><rect x="166.15384615384613" y="557.5822989746357" height="2.914193200215891" width="71.20879120879121"/><rect x="245.27472527472526" y="554.7652916073969" height="7.112375533428121" width="71.20879120879121"/><rect x="324.3956043956044" y="587.8901666275522" height="0" width="71.20879120879121"/><rect x="403.5164835164835" y="562.6923076923077" height="0" width="71.20879120879121"/><rect x="482.6373626373626" y="578.927055191046" height="0" width="71.20879120879121"/><rect x="561.7582417582416" y="582.9699712052653" height="8.515014397367281" width="71.20879120879121"/><rect x="640.8791208791208" y="587.0173475097929" height="8.729714605484105" width="71.20879120879121"/></g><g class="layer" style="fill: rgb(252, 141, 98);"><rect x="7.912087912087884" y="567.0161084121708" height="13.346970084377404" width="71.20879120879121"/><rect x="87.03296703296701" y="579.3794186959938" height="1.649646504320458" width="71.20879120879121"/><rect x="166.15384615384613" y="584.0259039395575" height="8.202914193200286" width="71.20879120879121"/><rect x="245.27472527472526" y="586.4864864864865" height="7.112375533428235" width="71.20879120879121"/><rect x="324.3956043956044" y="594.6491433935696" height="0" width="71.20879120879121"/><rect x="403.5164835164835" y="580.7692307692307" height="0" width="71.20879120879121"/><rect x="482.6373626373626" y="585.1794673871092" height="0" width="71.20879120879121"/><rect x="561.7582417582416" y="591.4849856026326" height="0" width="71.20879120879121"/><rect x="640.8791208791208" y="597.0900951315053" height="0" width="71.20879120879121"/></g><g class="layer" style="fill: rgb(229, 196, 148);"><rect x="7.912087912087884" y="556.5839938634621" height="0" width="71.20879120879121"/><rect x="87.03296703296701" y="570.1885310290652" height="9.190887666928575" width="71.20879120879121"/><rect x="166.15384615384613" y="563.6265515380464" height="4.209390178089507" width="71.20879120879121"/><rect x="245.27472527472526" y="564.8648648648649" height="18.207681365576036" width="71.20879120879121"/><rect x="324.3956043956044" y="590.7064069467261" height="0" width="71.20879120879121"/><rect x="403.5164835164835" y="562.6923076923077" height="0" width="71.20879120879121"/><rect x="482.6373626373626" y="579.9691238903898" height="0" width="71.20879120879121"/><rect x="561.7582417582416" y="591.4849856026326" height="0" width="71.20879120879121"/><rect x="640.8791208791208" y="596.3066592053722" height="0" width="71.20879120879121"/></g><g class="layer" style="fill: rgb(231, 138, 195);"><rect x="7.912087912087884" y="590.0281257990284" height="7.2104321145486665" width="71.20879120879121"/><rect x="87.03296703296701" y="594.4619010212098" height="5.538098978790231" width="71.20879120879121"/><rect x="166.15384615384613" y="594.4954128440367" height="2.2665947112790263" width="71.20879120879121"/><rect x="245.27472527472526" y="596.1593172119487" height="3.8406827880512537" width="71.20879120879121"/><rect x="324.3956043956044" y="594.6491433935696" height="0" width="71.20879120879121"/><rect x="403.5164835164835" y="580.7692307692307" height="0" width="71.20879120879121"/><rect x="482.6373626373626" y="585.1794673871092" height="0" width="71.20879120879121"/><rect x="561.7582417582416" y="591.4849856026326" height="0" width="71.20879120879121"/><rect x="640.8791208791208" y="597.0900951315053" height="0" width="71.20879120879121"/></g><g class="layer" style="fill: rgb(102, 194, 165);"><rect x="7.912087912087884" y="567.0161084121708" height="0" width="71.20879120879121"/><rect x="87.03296703296701" y="579.3794186959938" height="0" width="71.20879120879121"/><rect x="166.15384615384613" y="583.3783054506206" height="0.6475984889368647" width="71.20879120879121"/><rect x="245.27472527472526" y="586.4864864864865" height="0" width="71.20879120879121"/><rect x="324.3956043956044" y="590.7064069467261" height="3.942736446843469" width="71.20879120879121"/><rect x="403.5164835164835" y="562.6923076923077" height="18.07692307692298" width="71.20879120879121"/><rect x="482.6373626373626" y="579.9691238903898" height="5.210343496719361" width="71.20879120879121"/><rect x="561.7582417582416" y="591.4849856026326" height="0" width="71.20879120879121"/><rect x="640.8791208791208" y="596.3066592053722" height="0.7834359261331656" width="71.20879120879121"/></g><g class="layer" style="fill: rgb(255, 217, 47);"><rect x="7.912087912087884" y="597.5453848120685" height="0" width="71.20879120879121"/><rect x="87.03296703296701" y="600" height="0" width="71.20879120879121"/><rect x="166.15384615384613" y="596.7620075553157" height="0" width="71.20879120879121"/><rect x="245.27472527472526" y="600" height="0" width="71.20879120879121"/><rect x="324.3956043956044" y="594.6491433935696" height="0" width="71.20879120879121"/><rect x="403.5164835164835" y="585.5128205128206" height="8.461538461538453" width="71.20879120879121"/><rect x="482.6373626373626" y="595.4843689695099" height="1.1578541103820044" width="71.20879120879121"/><rect x="561.7582417582416" y="591.4849856026326" height="0.4936240230358635" width="71.20879120879121"/><rect x="640.8791208791208" y="597.0900951315053" height="0.8953553441522217" width="71.20879120879121"/></g><g class="layer" style="fill: rgb(252, 141, 98);"><rect x="7.912087912087884" y="541.8563027358732" height="0" width="71.20879120879121"/><rect x="87.03296703296701" y="558.6410054988216" height="0" width="71.20879120879121"/><rect x="166.15384615384613" y="554.9919050188882" height="0.8634646519158196" width="71.20879120879121"/><rect x="245.27472527472526" y="554.7652916073969" height="0" width="71.20879120879121"/><rect x="324.3956043956044" y="556.9115231166393" height="10.420089180943478" width="71.20879120879121"/><rect x="403.5164835164835" y="521.5384615384615" height="23.71794871794873" width="71.20879120879121"/><rect x="482.6373626373626" y="531.1076804322655" height="12.273253570050201" width="71.20879120879121"/><rect x="561.7582417582416" y="574.9485808309338" height="1.4808720691073631" width="71.20879120879121"/><rect x="640.8791208791208" y="578.735310576385" height="1.454952434247275" width="71.20879120879121"/></g><g class="layer" style="fill: rgb(229, 196, 148);"><rect x="7.912087912087884" y="597.5453848120685" height="0" width="71.20879120879121"/><rect x="87.03296703296701" y="600" height="0" width="71.20879120879121"/><rect x="166.15384615384613" y="596.7620075553157" height="0" width="71.20879120879121"/><rect x="245.27472527472526" y="600" height="0" width="71.20879120879121"/><rect x="324.3956043956044" y="594.6491433935696" height="4.365172494719559" width="71.20879120879121"/><rect x="403.5164835164835" y="593.974358974359" height="0" width="71.20879120879121"/><rect x="482.6373626373626" y="596.6422230798919" height="0" width="71.20879120879121"/><rect x="561.7582417582416" y="591.9786096256685" height="1.604278074866329" width="71.20879120879121"/><rect x="640.8791208791208" y="597.9854504756576" height="0" width="71.20879120879121"/></g><g class="layer" style="fill: rgb(166, 216, 84);"><rect x="7.912087912087884" y="597.2385579135771" height="0.30682689849140843" width="71.20879120879121"/><rect x="87.03296703296701" y="600" height="0" width="71.20879120879121"/><rect x="166.15384615384613" y="596.7620075553157" height="0" width="71.20879120879121"/><rect x="245.27472527472526" y="600" height="0" width="71.20879120879121"/><rect x="324.3956043956044" y="594.6491433935696" height="0" width="71.20879120879121"/><rect x="403.5164835164835" y="580.7692307692307" height="4.743589743589837" width="71.20879120879121"/><rect x="482.6373626373626" y="585.1794673871092" height="10.304901582400703" width="71.20879120879121"/><rect x="561.7582417582416" y="591.4849856026326" height="0" width="71.20879120879121"/><rect x="640.8791208791208" y="597.0900951315053" height="0" width="71.20879120879121"/></g><g class="layer" style="fill: rgb(102, 194, 165);"><rect x="7.912087912087884" y="597.5453848120685" height="0" width="71.20879120879121"/><rect x="87.03296703296701" y="600" height="0" width="71.20879120879121"/><rect x="166.15384615384613" y="597.4096060442525" height="0" width="71.20879120879121"/><rect x="245.27472527472526" y="600" height="0" width="71.20879120879121"/><rect x="324.3956043956044" y="599.0143158882892" height="0" width="71.20879120879121"/><rect x="403.5164835164835" y="593.974358974359" height="5" width="71.20879120879121"/><rect x="482.6373626373626" y="597.4527209571594" height="0" width="71.20879120879121"/><rect x="561.7582417582416" y="597.2850678733032" height="0" width="71.20879120879121"/><rect x="640.8791208791208" y="597.9854504756576" height="0" width="71.20879120879121"/></g><g class="layer" style="fill: rgb(179, 179, 179);"><rect x="7.912087912087884" y="597.5453848120685" height="0" width="71.20879120879121"/><rect x="87.03296703296701" y="600" height="0" width="71.20879120879121"/><rect x="166.15384615384613" y="596.7620075553157" height="0.6475984889368647" width="71.20879120879121"/><rect x="245.27472527472526" y="600" height="0" width="71.20879120879121"/><rect x="324.3956043956044" y="599.0143158882892" height="0" width="71.20879120879121"/><rect x="403.5164835164835" y="593.974358974359" height="0" width="71.20879120879121"/><rect x="482.6373626373626" y="596.6422230798919" height="0.810497877267494" width="71.20879120879121"/><rect x="561.7582417582416" y="593.5828877005348" height="3.702180172768408" width="71.20879120879121"/><rect x="640.8791208791208" y="597.9854504756576" height="0" width="71.20879120879121"/></g><g class="layer" style="fill: rgb(166, 216, 84);"><rect x="7.912087912087884" y="600" height="0" width="71.20879120879121"/><rect x="87.03296703296701" y="600" height="0" width="71.20879120879121"/><rect x="166.15384615384613" y="598.0572045331894" height="0" width="71.20879120879121"/><rect x="245.27472527472526" y="600" height="0" width="71.20879120879121"/><rect x="324.3956043956044" y="599.5775639521239" height="0" width="71.20879120879121"/><rect x="403.5164835164835" y="600" height="0" width="71.20879120879121"/><rect x="482.6373626373626" y="597.4527209571594" height="2.0841373986877443" width="71.20879120879121"/><rect x="561.7582417582416" y="599.1361579596874" height="0" width="71.20879120879121"/><rect x="640.8791208791208" y="600" height="0" width="71.20879120879121"/></g><g class="layer" style="fill: rgb(231, 138, 195);"><rect x="7.912087912087884" y="597.5453848120685" height="2.454615187931495" width="71.20879120879121"/><rect x="87.03296703296701" y="600" height="0" width="71.20879120879121"/><rect x="166.15384615384613" y="597.4096060442525" height="0.6475984889368647" width="71.20879120879121"/><rect x="245.27472527472526" y="600" height="0" width="71.20879120879121"/><rect x="324.3956043956044" y="599.5775639521239" height="0" width="71.20879120879121"/><rect x="403.5164835164835" y="600" height="0" width="71.20879120879121"/><rect x="482.6373626373626" y="597.4527209571594" height="0" width="71.20879120879121"/><rect x="561.7582417582416" y="599.1361579596874" height="0" width="71.20879120879121"/><rect x="640.8791208791208" y="600" height="0" width="71.20879120879121"/></g><g class="layer" style="fill: rgb(255, 217, 47);"><rect x="7.912087912087884" y="600" height="0" width="71.20879120879121"/><rect x="87.03296703296701" y="600" height="0" width="71.20879120879121"/><rect x="166.15384615384613" y="598.0572045331894" height="1.6189962223421617" width="71.20879120879121"/><rect x="245.27472527472526" y="600" height="0" width="71.20879120879121"/><rect x="324.3956043956044" y="599.5775639521239" height="0" width="71.20879120879121"/><rect x="403.5164835164835" y="600" height="0" width="71.20879120879121"/><rect x="482.6373626373626" y="599.5368583558471" height="0" width="71.20879120879121"/><rect x="561.7582417582416" y="599.1361579596874" height="0" width="71.20879120879121"/><rect x="640.8791208791208" y="600" height="0" width="71.20879120879121"/></g><g class="layer" style="fill: rgb(141, 160, 203);"><rect x="7.912087912087884" y="597.5453848120685" height="0" width="71.20879120879121"/><rect x="87.03296703296701" y="600" height="0" width="71.20879120879121"/><rect x="166.15384615384613" y="597.4096060442525" height="0" width="71.20879120879121"/><rect x="245.27472527472526" y="600" height="0" width="71.20879120879121"/><rect x="324.3956043956044" y="599.5775639521239" height="0" width="71.20879120879121"/><rect x="403.5164835164835" y="600" height="0" width="71.20879120879121"/><rect x="482.6373626373626" y="597.4527209571594" height="0" width="71.20879120879121"/><rect x="561.7582417582416" y="597.2850678733032" height="1.851090086384147" width="71.20879120879121"/><rect x="640.8791208791208" y="599.2165640738668" height="0.7834359261331656" width="71.20879120879121"/></g><g class="layer" style="fill: rgb(252, 141, 98);"><rect x="7.912087912087884" y="597.5453848120685" height="0" width="71.20879120879121"/><rect x="87.03296703296701" y="600" height="0" width="71.20879120879121"/><rect x="166.15384615384613" y="597.4096060442525" height="0" width="71.20879120879121"/><rect x="245.27472527472526" y="600" height="0" width="71.20879120879121"/><rect x="324.3956043956044" y="599.0143158882892" height="0.5632480638347488" width="71.20879120879121"/><rect x="403.5164835164835" y="598.974358974359" height="1.0256410256409936" width="71.20879120879121"/><rect x="482.6373626373626" y="597.4527209571594" height="0" width="71.20879120879121"/><rect x="561.7582417582416" y="597.2850678733032" height="0" width="71.20879120879121"/><rect x="640.8791208791208" y="597.9854504756576" height="1.2311135982092765" width="71.20879120879121"/></g><g class="layer" style="fill: rgb(229, 196, 148);"><rect x="7.912087912087884" y="600" height="0" width="71.20879120879121"/><rect x="87.03296703296701" y="600" height="0" width="71.20879120879121"/><rect x="166.15384615384613" y="599.6762007555316" height="0" width="71.20879120879121"/><rect x="245.27472527472526" y="600" height="0" width="71.20879120879121"/><rect x="324.3956043956044" y="599.5775639521239" height="0" width="71.20879120879121"/><rect x="403.5164835164835" y="600" height="0" width="71.20879120879121"/><rect x="482.6373626373626" y="599.5368583558471" height="0" width="71.20879120879121"/><rect x="561.7582417582416" y="599.1361579596874" height="0.6170300287947157" width="71.20879120879121"/><rect x="640.8791208791208" y="600" height="0" width="71.20879120879121"/></g><g class="layer" style="fill: rgb(179, 179, 179);"><rect x="7.912087912087884" y="600" height="0" width="71.20879120879121"/><rect x="87.03296703296701" y="600" height="0" width="71.20879120879121"/><rect x="166.15384615384613" y="599.6762007555316" height="0" width="71.20879120879121"/><rect x="245.27472527472526" y="600" height="0" width="71.20879120879121"/><rect x="324.3956043956044" y="599.5775639521239" height="0" width="71.20879120879121"/><rect x="403.5164835164835" y="600" height="0" width="71.20879120879121"/><rect x="482.6373626373626" y="599.5368583558471" height="0.46314164415286996" width="71.20879120879121"/><rect x="561.7582417582416" y="599.7531879884821" height="0" width="71.20879120879121"/><rect x="640.8791208791208" y="600" height="0" width="71.20879120879121"/></g><g class="layer" style="fill: rgb(252, 141, 98);"><rect x="7.912087912087884" y="600" height="0" width="71.20879120879121"/><rect x="87.03296703296701" y="600" height="0" width="71.20879120879121"/><rect x="166.15384615384613" y="599.6762007555316" height="0.32379924446843233" width="71.20879120879121"/><rect x="245.27472527472526" y="600" height="0" width="71.20879120879121"/><rect x="324.3956043956044" y="600" height="0" width="71.20879120879121"/><rect x="403.5164835164835" y="600" height="0" width="71.20879120879121"/><rect x="482.6373626373626" y="600" height="0" width="71.20879120879121"/><rect x="561.7582417582416" y="599.7531879884821" height="0" width="71.20879120879121"/><rect x="640.8791208791208" y="600" height="0" width="71.20879120879121"/></g><g class="layer" style="fill: rgb(102, 194, 165);"><rect x="7.912087912087884" y="600" height="0" width="71.20879120879121"/><rect x="87.03296703296701" y="600" height="0" width="71.20879120879121"/><rect x="166.15384615384613" y="599.6762007555316" height="0" width="71.20879120879121"/><rect x="245.27472527472526" y="600" height="0" width="71.20879120879121"/><rect x="324.3956043956044" y="599.5775639521239" height="0.42243604787609" width="71.20879120879121"/><rect x="403.5164835164835" y="600" height="0" width="71.20879120879121"/><rect x="482.6373626373626" y="600" height="0" width="71.20879120879121"/><rect x="561.7582417582416" y="599.7531879884821" height="0" width="71.20879120879121"/><rect x="640.8791208791208" y="600" height="0" width="71.20879120879121"/></g><g class="layer" style="fill: rgb(141, 160, 203);"><rect x="7.912087912087884" y="600" height="0" width="71.20879120879121"/><rect x="87.03296703296701" y="600" height="0" width="71.20879120879121"/><rect x="166.15384615384613" y="600" height="0" width="71.20879120879121"/><rect x="245.27472527472526" y="600" height="0" width="71.20879120879121"/><rect x="324.3956043956044" y="600" height="0" width="71.20879120879121"/><rect x="403.5164835164835" y="600" height="0" width="71.20879120879121"/><rect x="482.6373626373626" y="600" height="0" width="71.20879120879121"/><rect x="561.7582417582416" y="599.7531879884821" height="0.24681201151793175" width="71.20879120879121"/><rect x="640.8791208791208" y="600" height="0" width="71.20879120879121"/></g></g></svg>