<?xml version="1.0" standalone="no"?>
<svg xmlns="http://www.w3.org/2000/svg" width="780" height="779.5124969482422"><g transform="translate(60,20)"><g class="x axis" transform="translate(0,600)" fill="none" font-size="10" font-family="sans-serif" text-anchor="middle"><path class="domain" stroke="#000" d="M0.5,6V0.5H720.5V6"/><g class="tick" opacity="1" transform="translate(43.51648351648349,0)"><line stroke="#000" y2="6"/><text fill="#000" y="9" dy="-0.5em" dx="-.8em" style="text-anchor: end;" transform="rotate(-90)">S15-V5-R-B78-calc</text></g><g class="tick" opacity="1" transform="translate(122.63736263736261,0)"><line stroke="#000" y2="6"/><text fill="#000" y="9" dy="-0.5em" dx="-.8em" style="text-anchor: end;" transform="rotate(-90)">S8-V5-O-G12-calc</text></g><g class="tick" opacity="1" transform="translate(201.75824175824175,0)"><line stroke="#000" y2="6"/><text fill="#000" y="9" dy="-0.5em" dx="-.8em" style="text-anchor: end;" transform="rotate(-90)">S10-V5-Q-B61-calc</text></g><g class="tick" opacity="1" transform="translate(280.8791208791209,0)"><line stroke="#000" y2="6"/><text fill="#000" y="9" dy="-0.5em" dx="-.8em" style="text-anchor: end;" transform="rotate(-90)">S18S19-V5-L-B17-root</text></g><g class="tick" opacity="1" transform="translate(360,0)"><line stroke="#000" y2="6"/><text fill="#000" y="9" dy="-0.5em" dx="-.8em" style="text-anchor: end;" transform="rotate(-90)">S22S23-V5-N-B78-root</text></g><g class="tick" opacity="1" transform="translate(439.1208791208791,0)"><line stroke="#000" y2="6"/><text fill="#000" y="9" dy="-0.5em" dx="-.8em" style="text-anchor: end;" transform="rotate(-90)">S20S21-V5-M-B61-root</text></g><g class="tick" opacity="1" transform="translate(518.2417582417582,0)"><line stroke="#000" y2="6"/><text fill="#000" y="9" dy="-0.5em" dx="-.8em" style="text-anchor: end;" transform="rotate(-90)">S14-V5-P-B17-calc</text></g><g class="tick" opacity="1" transform="translate(597.3626373626372,0)"><line stroke="#000" y2="6"/><text fill="#000" y="9" dy="-0.5em" dx="-.8em" style="text-anchor: end;" transform="rotate(-90)">S16S17-V5-K2-G12-root</text></g><g class="tick" opacity="1" transform="translate(676.4835164835164,0)"><line stroke="#000" y2="6"/><text fill="#000" y="9" dy="-0.5em" dx="-.8em" style="text-anchor: end;" transform="rotate(-90)">S16S17-V5-K1-G12-root</text></g></g><g class="y axis" fill="none" font-size="10" font-family="sans-serif" text-anchor="end"><path class="domain" stroke="#000" d="M-6,600.5H0.5V0.5H-6"/><g class="tick" opacity="1" transform="translate(0,600.5)"><line stroke="#000" x2="-6"/><text fill="#000" x="-9" dy="0.32em">0%</text></g><g class="tick" opacity="1" transform="translate(0,540.5)"><line stroke="#000" x2="-6"/><text fill="#000" x="-9" dy="0.32em">10%</text></g><g class="tick" opacity="1" transform="translate(0,480.5)"><line stroke="#000" x2="-6"/><text fill="#000" x="-9" dy="0.32em">20%</text></g><g class="tick" opacity="1" transform="translate(0,420.5)"><line stroke="#000" x2="-6"/><text fill="#000" x="-9" dy="0.32em">30%</text></g><g class="tick" opacity="1" transform="translate(0,360.5)"><line stroke="#000" x2="-6"/><text fill="#000" x="-9" dy="0.32em">40%</text></g><g class="tick" opacity="1" transform="translate(0,300.5)"><line stroke="#000" x2="-6"/><text fill="#000" x="-9" dy="0.32em">50%</text></g><g class="tick" opacity="1" transform="translate(0,240.5)"><line stroke="#000" x2="-6"/><text fill="#000" x="-9" dy="0.32em">60%</text></g><g class="tick" opacity="1" transform="translate(0,180.5)"><line stroke="#000" x2="-6"/><text fill="#000" x="-9" dy="0.32em">70%</text></g><g class="tick" opacity="1" transform="translate(0,120.5)"><line stroke="#000" x2="-6"/><text fill="#000" x="-9" dy="0.32em">80%</text></g><g class="tick" opacity="1" transform="translate(0,60.5)"><line stroke="#000" x2="-6"/><text fill="#000" x="-9" dy="0.32em">90%</text></g><g class="tick" opacity="1" transform="translate(0,0.5)"><line stroke="#000" x2="-6"/><text fill="#000" x="-9" dy="0.32em">100%</text></g></g><text id="y-label" text-anchor="middle" style="font: 12px sans-serif;" transform="translate(-30,300)rotate(-90)">Relative Frequency</text><text id="x-label" text-anchor="middle" style="font: 12px sans-serif;" transform="translate(360,739.5124969482422)">Sample</text><g class="layer" style="fill: rgb(141, 160, 203);"><rect x="7.912087912087884" y="297.1618511889542" height="0" width="71.20879120879121"/><rect x="87.03296703296701" y="376.23723487824043" height="0" width="71.20879120879121"/><rect x="166.15384615384613" y="300.80949811117114" height="7.987048030221217" width="71.20879120879121"/><rect x="245.27472527472526" y="120.76923076923083" height="126.41025641025641" width="71.20879120879121"/><rect x="324.3956043956044" y="243.74559962450132" height="92.93593053273878" width="71.20879120879121"/><rect x="403.5164835164835" y="121.34311076804323" height="174.60439984561947" width="71.20879120879121"/><rect x="482.6373626373626" y="330.0142247510668" height="0" width="71.20879120879121"/><rect x="561.7582417582416" y="248.53969559851913" height="139.07856849033323" width="71.20879120879121"/><rect x="640.8791208791208" y="247.34191382204813" height="138.4443200895355" width="71.20879120879121"/></g><g class="layer" style="fill: rgb(252, 141, 98);"><rect x="7.912087912087884" y="17.489133214011645" height="279.67271797494254" width="71.20879120879121"/><rect x="87.03296703296701" y="62.33307148468191" height="313.9041633935585" width="71.20879120879121"/><rect x="166.15384615384613" y="88.8289260658392" height="211.98057204533194" width="71.20879120879121"/><rect x="245.27472527472526" y="95.25641025641033" height="25.512820512820497" width="71.20879120879121"/><rect x="324.3956043956044" y="106.31307204881489" height="137.43252757568644" width="71.20879120879121"/><rect x="403.5164835164835" y="116.01698186028557" height="5.3261289077576635" width="71.20879120879121"/><rect x="482.6373626373626" y="195.59032716927453" height="134.4238975817923" width="71.20879120879121"/><rect x="561.7582417582416" y="218.7988482106129" height="29.74084738790623" width="71.20879120879121"/><rect x="640.8791208791208" y="222.1600447677672" height="25.181869054280924" width="71.20879120879121"/></g><g class="layer" style="fill: rgb(102, 194, 165);"><rect x="7.912087912087884" y="-1.1368683772161603e-13" height="17.48913321401176" width="71.20879120879121"/><rect x="87.03296703296701" y="1.1368683772161603e-13" height="62.333071484681795" width="71.20879120879121"/><rect x="166.15384615384613" y="0" height="88.8289260658392" width="71.20879120879121"/><rect x="245.27472527472526" y="1.1368683772161603e-13" height="95.25641025641022" width="71.20879120879121"/><rect x="324.3956043956044" y="1.1368683772161603e-13" height="106.31307204881477" width="71.20879120879121"/><rect x="403.5164835164835" y="0" height="116.01698186028557" width="71.20879120879121"/><rect x="482.6373626373626" y="0" height="195.59032716927453" width="71.20879120879121"/><rect x="561.7582417582416" y="0" height="218.7988482106129" width="71.20879120879121"/><rect x="640.8791208791208" y="0" height="222.1600447677672" width="71.20879120879121"/></g><g class="layer" style="fill: rgb(166, 216, 84);"><rect x="7.912087912087884" y="345.9473280490923" height="45.87062132446948" width="71.20879120879121"/><rect x="87.03296703296701" y="446.34721131186177" height="6.716417910447717" width="71.20879120879121"/><rect x="166.15384615384613" y="407.44738262277394" height="31.516459794927073" width="71.20879120879121"/><rect x="245.27472527472526" y="282.69230769230774" height="111.025641025641" width="71.20879120879121"/><rect x="324.3956043956044" y="365.6888054447313" height="59.56348275052801" width="71.20879120879121"/><rect x="403.5164835164835" y="311.1153994596681" height="33.34619837900425" width="71.20879120879121"/><rect x="482.6373626373626" y="423.1863442389758" height="16.78520625889047" width="71.20879120879121"/><rect x="561.7582417582416" y="426.98477992595645" height="71.57548334018918" width="71.20879120879121"/><rect x="640.8791208791208" y="420.7050923335199" height="74.65025181869049" width="71.20879120879121"/></g><g class="layer" style="fill: rgb(231, 138, 195);"><rect x="7.912087912087884" y="297.1618511889542" height="48.78547686013809" width="71.20879120879121"/><rect x="87.03296703296701" y="376.23723487824043" height="70.10997643362134" width="71.20879120879121"/><rect x="166.15384615384613" y="308.79654614139235" height="98.65083648138159" width="71.20879120879121"/><rect x="245.27472527472526" y="247.17948717948724" height="35.5128205128205" width="71.20879120879121"/><rect x="324.3956043956044" y="336.6815301572401" height="29.00727528749121" width="71.20879120879121"/><rect x="403.5164835164835" y="295.9475106136627" height="15.167888846005383" width="71.20879120879121"/><rect x="482.6373626373626" y="330.0142247510668" height="93.17211948790896" width="71.20879120879121"/><rect x="561.7582417582416" y="387.61826408885236" height="39.36651583710409" width="71.20879120879121"/><rect x="640.8791208791208" y="385.7862339115836" height="34.91885842193625" width="71.20879120879121"/></g><g class="layer" style="fill: rgb(179, 179, 179);"><rect x="7.912087912087884" y="409.76732293531063" height="68.42239836358988" width="71.20879120879121"/><rect x="87.03296703296701" y="510.21209740769837" height="38.76669285153184" width="71.20879120879121"/><rect x="166.15384615384613" y="480.9498111171074" height="38.85590933621154" width="71.20879120879121"/><rect x="245.27472527472526" y="463.33333333333337" height="5.128205128205082" width="71.20879120879121"/><rect x="324.3956043956044" y="527.6226237972307" height="0" width="71.20879120879121"/><rect x="403.5164835164835" y="435.23736009262836" height="0.6947124662292481" width="71.20879120879121"/><rect x="482.6373626373626" y="527.7382645803698" height="17.496443812233338" width="71.20879120879121"/><rect x="561.7582417582416" y="565.076100370218" height="0" width="71.20879120879121"/><rect x="640.8791208791208" y="562.2831561275881" height="0" width="71.20879120879121"/></g><g class="layer" style="fill: rgb(255, 217, 47);"><rect x="7.912087912087884" y="391.81794937356176" height="15.494758373817376" width="71.20879120879121"/><rect x="87.03296703296701" y="453.0636292223095" height="44.304791830322074" width="71.20879120879121"/><rect x="166.15384615384613" y="438.963842417701" height="30.11332973556398" width="71.20879120879121"/><rect x="245.27472527472526" y="393.71794871794873" height="26.538461538461547" width="71.20879120879121"/><rect x="324.3956043956044" y="425.2522881952593" height="79.69960103262144" width="71.20879120879121"/><rect x="403.5164835164835" y="344.46159783867233" height="62.06098031648014" width="71.20879120879121"/><rect x="482.6373626373626" y="439.97155049786625" height="71.26600284495026" width="71.20879120879121"/><rect x="561.7582417582416" y="498.5602632661456" height="55.53270259152612" width="71.20879120879121"/><rect x="640.8791208791208" y="495.35534415221036" height="53.60940123111368" width="71.20879120879121"/></g><g class="layer" style="fill: rgb(102, 194, 165);"><rect x="7.912087912087884" y="478.1897212989005" height="53.84812068524673" width="71.20879120879121"/><rect x="87.03296703296701" y="548.9787902592302" height="9.662215239591433" width="71.20879120879121"/><rect x="166.15384615384613" y="519.8057204533189" height="15.218564490016206" width="71.20879120879121"/><rect x="245.27472527472526" y="468.46153846153845" height="0" width="71.20879120879121"/><rect x="324.3956043956044" y="527.6226237972307" height="0" width="71.20879120879121"/><rect x="403.5164835164835" y="435.9320725588576" height="0" width="71.20879120879121"/><rect x="482.6373626373626" y="545.2347083926031" height="2.702702702702709" width="71.20879120879121"/><rect x="561.7582417582416" y="565.076100370218" height="0" width="71.20879120879121"/><rect x="640.8791208791208" y="562.2831561275881" height="0" width="71.20879120879121"/></g><g class="layer" style="fill: rgb(252, 141, 98);"><rect x="7.912087912087884" y="532.0378419841472" height="0" width="71.20879120879121"/><rect x="87.03296703296701" y="558.6410054988216" height="0" width="71.20879120879121"/><rect x="166.15384615384613" y="535.0242849433351" height="1.8348623853211166" width="71.20879120879121"/><rect x="245.27472527472526" y="468.46153846153845" height="9.358974358974365" width="71.20879120879121"/><rect x="324.3956043956044" y="527.6226237972307" height="8.730344989439004" width="71.20879120879121"/><rect x="403.5164835164835" y="435.9320725588576" height="42.724816673099156" width="71.20879120879121"/><rect x="482.6373626373626" y="547.9374110953058" height="0" width="71.20879120879121"/><rect x="561.7582417582416" y="565.076100370218" height="4.195804195804158" width="71.20879120879121"/><rect x="640.8791208791208" y="562.2831561275881" height="3.02182428651372" width="71.20879120879121"/></g><g class="layer" style="fill: rgb(229, 196, 148);"><rect x="7.912087912087884" y="407.31270774737914" height="2.454615187931495" width="71.20879120879121"/><rect x="87.03296703296701" y="497.36842105263156" height="12.843676355066805" width="71.20879120879121"/><rect x="166.15384615384613" y="469.077172153265" height="11.872638963842405" width="71.20879120879121"/><rect x="245.27472527472526" y="420.2564102564103" height="43.076923076923094" width="71.20879120879121"/><rect x="324.3956043956044" y="504.95188922788077" height="22.670734569349975" width="71.20879120879121"/><rect x="403.5164835164835" y="406.5225781551525" height="28.71478193747589" width="71.20879120879121"/><rect x="482.6373626373626" y="511.2375533428165" height="16.500711237553276" width="71.20879120879121"/><rect x="561.7582417582416" y="554.0929658576717" height="10.983134512546258" width="71.20879120879121"/><rect x="640.8791208791208" y="548.964745383324" height="13.318410744264042" width="71.20879120879121"/></g><g class="layer" style="fill: rgb(141, 160, 203);"><rect x="7.912087912087884" y="532.0378419841472" height="0" width="71.20879120879121"/><rect x="87.03296703296701" y="558.6410054988216" height="0" width="71.20879120879121"/><rect x="166.15384615384613" y="536.8591473286563" height="0.971397733405297" width="71.20879120879121"/><rect x="245.27472527472526" y="477.8205128205128" height="11.28205128205127" width="71.20879120879121"/><rect x="324.3956043956044" y="536.3529687866697" height="10.138465149026047" width="71.20879120879121"/><rect x="403.5164835164835" y="478.65688923195677" height="10.883828637591648" width="71.20879120879121"/><rect x="482.6373626373626" y="547.9374110953058" height="0" width="71.20879120879121"/><rect x="561.7582417582416" y="569.2719045660222" height="6.540518305224282" width="71.20879120879121"/><rect x="640.8791208791208" y="565.3049804141018" height="6.8270844991606054" width="71.20879120879121"/></g><g class="layer" style="fill: rgb(255, 217, 47);"><rect x="7.912087912087884" y="532.0378419841472" height="9.81846075172598" width="71.20879120879121"/><rect x="87.03296703296701" y="558.6410054988216" height="0" width="71.20879120879121"/><rect x="166.15384615384613" y="538.6940097139774" height="17.701025364274074" width="71.20879120879121"/><rect x="245.27472527472526" y="523.7179487179487" height="2.307692307692264" width="71.20879120879121"/><rect x="324.3956043956044" y="558.7420793241023" height="0" width="71.20879120879121"/><rect x="403.5164835164835" y="516.0555769972983" height="0" width="71.20879120879121"/><rect x="482.6373626373626" y="547.9374110953058" height="6.827880512091042" width="71.20879120879121"/><rect x="561.7582417582416" y="582.5997531879884" height="0.3702180172768976" width="71.20879120879121"/><rect x="640.8791208791208" y="573.5870173475098" height="0.33575825405705473" width="71.20879120879121"/></g><g class="layer" style="fill: rgb(229, 196, 148);"><rect x="7.912087912087884" y="541.8563027358732" height="0.6136537969828169" width="71.20879120879121"/><rect x="87.03296703296701" y="558.6410054988216" height="0" width="71.20879120879121"/><rect x="166.15384615384613" y="556.3950350782515" height="0" width="71.20879120879121"/><rect x="245.27472527472526" y="526.025641025641" height="5.128205128205195" width="71.20879120879121"/><rect x="324.3956043956044" y="558.7420793241023" height="9.716029101149957" width="71.20879120879121"/><rect x="403.5164835164835" y="516.0555769972983" height="20.609803164801292" width="71.20879120879121"/><rect x="482.6373626373626" y="554.7652916073969" height="0" width="71.20879120879121"/><rect x="561.7582417582416" y="582.9699712052653" height="0" width="71.20879120879121"/><rect x="640.8791208791208" y="573.9227756015669" height="0" width="71.20879120879121"/></g><g class="layer" style="fill: rgb(252, 141, 98);"><rect x="7.912087912087884" y="545.0779851700332" height="10.432114548708796" width="71.20879120879121"/><rect x="87.03296703296701" y="568.8923802042419" height="0" width="71.20879120879121"/><rect x="166.15384615384613" y="563.518618456557" height="15.542363734484638" width="71.20879120879121"/><rect x="245.27472527472526" y="531.1538461538462" height="0" width="71.20879120879121"/><rect x="324.3956043956044" y="568.4581084252522" height="0" width="71.20879120879121"/><rect x="403.5164835164835" y="536.6653801620996" height="0" width="71.20879120879121"/><rect x="482.6373626373626" y="580.0853485064011" height="3.413940256045521" width="71.20879120879121"/><rect x="561.7582417582416" y="591.4849856026326" height="0" width="71.20879120879121"/><rect x="640.8791208791208" y="582.652490207051" height="0" width="71.20879120879121"/></g><g class="layer" style="fill: rgb(179, 179, 179);"><rect x="7.912087912087884" y="568.8570698031194" height="8.897980056251527" width="71.20879120879121"/><rect x="87.03296703296701" y="570.5420267085624" height="12.961508248232576" width="71.20879120879121"/><rect x="166.15384615384613" y="587.9114948731786" height="1.4031300593632068" width="71.20879120879121"/><rect x="245.27472527472526" y="569.6153846153846" height="0" width="71.20879120879121"/><rect x="324.3956043956044" y="586.7636704998827" height="0" width="71.20879120879121"/><rect x="403.5164835164835" y="569.8957931300656" height="0" width="71.20879120879121"/><rect x="482.6373626373626" y="590.6116642958748" height="0.8534850640114655" width="71.20879120879121"/><rect x="561.7582417582416" y="591.4849856026326" height="0" width="71.20879120879121"/><rect x="640.8791208791208" y="596.5304980414102" height="0" width="71.20879120879121"/></g><g class="layer" style="fill: rgb(102, 194, 165);"><rect x="7.912087912087884" y="577.755049859371" height="9.51163385323457" width="71.20879120879121"/><rect x="87.03296703296701" y="583.503534956795" height="10.487038491751719" width="71.20879120879121"/><rect x="166.15384615384613" y="589.3146249325418" height="0.2158661629789549" width="71.20879120879121"/><rect x="245.27472527472526" y="569.6153846153846" height="0" width="71.20879120879121"/><rect x="324.3956043956044" y="586.7636704998827" height="0" width="71.20879120879121"/><rect x="403.5164835164835" y="569.8957931300656" height="0.46314164415286996" width="71.20879120879121"/><rect x="482.6373626373626" y="591.4651493598863" height="0" width="71.20879120879121"/><rect x="561.7582417582416" y="591.4849856026326" height="0" width="71.20879120879121"/><rect x="640.8791208791208" y="596.5304980414102" height="0.559597090095167" width="71.20879120879121"/></g><g class="layer" style="fill: rgb(229, 196, 148);"><rect x="7.912087912087884" y="568.8570698031194" height="0" width="71.20879120879121"/><rect x="87.03296703296701" y="570.5420267085624" height="0" width="71.20879120879121"/><rect x="166.15384615384613" y="587.9114948731786" height="0" width="71.20879120879121"/><rect x="245.27472527472526" y="565.5128205128206" height="4.102564102564088" width="71.20879120879121"/><rect x="324.3956043956044" y="586.7636704998827" height="0" width="71.20879120879121"/><rect x="403.5164835164835" y="553.3384793516017" height="16.557313778463936" width="71.20879120879121"/><rect x="482.6373626373626" y="590.6116642958748" height="0" width="71.20879120879121"/><rect x="561.7582417582416" y="591.4849856026326" height="0" width="71.20879120879121"/><rect x="640.8791208791208" y="593.8444320089535" height="2.686066032456665" width="71.20879120879121"/></g><g class="layer" style="fill: rgb(255, 217, 47);"><rect x="7.912087912087884" y="568.8570698031194" height="0" width="71.20879120879121"/><rect x="87.03296703296701" y="570.5420267085624" height="0" width="71.20879120879121"/><rect x="166.15384615384613" y="587.9114948731786" height="0" width="71.20879120879121"/><rect x="245.27472527472526" y="551.5384615384615" height="13.974358974359006" width="71.20879120879121"/><rect x="324.3956043956044" y="586.7636704998827" height="0" width="71.20879120879121"/><rect x="403.5164835164835" y="541.875723658819" height="11.462755692782707" width="71.20879120879121"/><rect x="482.6373626373626" y="590.6116642958748" height="0" width="71.20879120879121"/><rect x="561.7582417582416" y="591.4849856026326" height="0" width="71.20879120879121"/><rect x="640.8791208791208" y="593.8444320089535" height="0" width="71.20879120879121"/></g><g class="layer" style="fill: rgb(179, 179, 179);"><rect x="7.912087912087884" y="542.469956532856" height="2.608028637177199" width="71.20879120879121"/><rect x="87.03296703296701" y="558.6410054988216" height="1.0604870384918286" width="71.20879120879121"/><rect x="166.15384615384613" y="556.3950350782515" height="2.914193200215891" width="71.20879120879121"/><rect x="245.27472527472526" y="531.1538461538462" height="0" width="71.20879120879121"/><rect x="324.3956043956044" y="568.4581084252522" height="0" width="71.20879120879121"/><rect x="403.5164835164835" y="536.6653801620996" height="0" width="71.20879120879121"/><rect x="482.6373626373626" y="554.7652916073969" height="7.112375533428121" width="71.20879120879121"/><rect x="561.7582417582416" y="582.9699712052653" height="8.515014397367281" width="71.20879120879121"/><rect x="640.8791208791208" y="573.9227756015669" height="8.729714605484105" width="71.20879120879121"/></g><g class="layer" style="fill: rgb(231, 138, 195);"><rect x="7.912087912087884" y="594.7839427256456" height="0" width="71.20879120879121"/><rect x="87.03296703296701" y="599.528672427337" height="0" width="71.20879120879121"/><rect x="166.15384615384613" y="591.7970858067998" height="0" width="71.20879120879121"/><rect x="245.27472527472526" y="574.3589743589744" height="1.6666666666666288" width="71.20879120879121"/><rect x="324.3956043956044" y="586.7636704998827" height="2.675428303215199" width="71.20879120879121"/><rect x="403.5164835164835" y="580.6638363566191" height="10.189116171362457" width="71.20879120879121"/><rect x="482.6373626373626" y="595.3058321479374" height="0" width="71.20879120879121"/><rect x="561.7582417582416" y="591.4849856026326" height="0" width="71.20879120879121"/><rect x="640.8791208791208" y="597.0900951315053" height="0" width="71.20879120879121"/></g><g class="layer" style="fill: rgb(231, 138, 195);"><rect x="7.912087912087884" y="555.510099718742" height="13.346970084377404" width="71.20879120879121"/><rect x="87.03296703296701" y="568.8923802042419" height="1.649646504320458" width="71.20879120879121"/><rect x="166.15384615384613" y="579.7085806799785" height="8.202914193200172" width="71.20879120879121"/><rect x="245.27472527472526" y="549.2307692307693" height="0" width="71.20879120879121"/><rect x="324.3956043956044" y="572.4008448720957" height="0" width="71.20879120879121"/><rect x="403.5164835164835" y="541.875723658819" height="0" width="71.20879120879121"/><rect x="482.6373626373626" y="583.4992887624467" height="7.112375533428121" width="71.20879120879121"/><rect x="561.7582417582416" y="591.4849856026326" height="0" width="71.20879120879121"/><rect x="640.8791208791208" y="583.4359261331841" height="0" width="71.20879120879121"/></g><g class="layer" style="fill: rgb(102, 194, 165);"><rect x="7.912087912087884" y="545.0779851700332" height="0" width="71.20879120879121"/><rect x="87.03296703296701" y="559.7014925373135" height="9.190887666928461" width="71.20879120879121"/><rect x="166.15384615384613" y="559.3092282784673" height="4.20939017808962" width="71.20879120879121"/><rect x="245.27472527472526" y="531.1538461538462" height="0" width="71.20879120879121"/><rect x="324.3956043956044" y="568.4581084252522" height="0" width="71.20879120879121"/><rect x="403.5164835164835" y="536.6653801620996" height="0" width="71.20879120879121"/><rect x="482.6373626373626" y="561.877667140825" height="18.20768136557615" width="71.20879120879121"/><rect x="561.7582417582416" y="591.4849856026326" height="0" width="71.20879120879121"/><rect x="640.8791208791208" y="582.652490207051" height="0" width="71.20879120879121"/></g><g class="layer" style="fill: rgb(166, 216, 84);"><rect x="7.912087912087884" y="532.0378419841472" height="0" width="71.20879120879121"/><rect x="87.03296703296701" y="558.6410054988216" height="0" width="71.20879120879121"/><rect x="166.15384615384613" y="538.6940097139774" height="0" width="71.20879120879121"/><rect x="245.27472527472526" y="508.71794871794873" height="15" width="71.20879120879121"/><rect x="324.3956043956044" y="555.2217789251349" height="3.520300398967379" width="71.20879120879121"/><rect x="403.5164835164835" y="501.8139714395986" height="14.2416055576997" width="71.20879120879121"/><rect x="482.6373626373626" y="547.9374110953058" height="0" width="71.20879120879121"/><rect x="561.7582417582416" y="577.2932949403538" height="5.306458247634623" width="71.20879120879121"/><rect x="640.8791208791208" y="573.5870173475098" height="0" width="71.20879120879121"/></g><g class="layer" style="fill: rgb(252, 141, 98);"><rect x="7.912087912087884" y="587.2666837126055" height="7.2104321145486665" width="71.20879120879121"/><rect x="87.03296703296701" y="593.9905734485467" height="5.5380989787903445" width="71.20879120879121"/><rect x="166.15384615384613" y="589.5304910955208" height="2.2665947112790263" width="71.20879120879121"/><rect x="245.27472527472526" y="569.6153846153846" height="0" width="71.20879120879121"/><rect x="324.3956043956044" y="586.7636704998827" height="0" width="71.20879120879121"/><rect x="403.5164835164835" y="570.3589347742185" height="0" width="71.20879120879121"/><rect x="482.6373626373626" y="591.4651493598863" height="3.84068278805114" width="71.20879120879121"/><rect x="561.7582417582416" y="591.4849856026326" height="0" width="71.20879120879121"/><rect x="640.8791208791208" y="597.0900951315053" height="0" width="71.20879120879121"/></g><g class="layer" style="fill: rgb(166, 216, 84);"><rect x="7.912087912087884" y="568.8570698031194" height="0" width="71.20879120879121"/><rect x="87.03296703296701" y="570.5420267085624" height="0" width="71.20879120879121"/><rect x="166.15384615384613" y="587.9114948731786" height="0" width="71.20879120879121"/><rect x="245.27472527472526" y="549.2307692307693" height="2.307692307692264" width="71.20879120879121"/><rect x="324.3956043956044" y="572.4008448720957" height="14.362825627786947" width="71.20879120879121"/><rect x="403.5164835164835" y="541.875723658819" height="0" width="71.20879120879121"/><rect x="482.6373626373626" y="590.6116642958748" height="0" width="71.20879120879121"/><rect x="561.7582417582416" y="591.4849856026326" height="0" width="71.20879120879121"/><rect x="640.8791208791208" y="583.4359261331841" height="10.408505875769379" width="71.20879120879121"/></g><g class="layer" style="fill: rgb(141, 160, 203);"><rect x="7.912087912087884" y="555.510099718742" height="0" width="71.20879120879121"/><rect x="87.03296703296701" y="568.8923802042419" height="0" width="71.20879120879121"/><rect x="166.15384615384613" y="579.0609821910416" height="0.6475984889368647" width="71.20879120879121"/><rect x="245.27472527472526" y="531.1538461538462" height="18.076923076923094" width="71.20879120879121"/><rect x="324.3956043956044" y="568.4581084252522" height="3.942736446843469" width="71.20879120879121"/><rect x="403.5164835164835" y="536.6653801620996" height="5.210343496719361" width="71.20879120879121"/><rect x="482.6373626373626" y="583.4992887624467" height="0" width="71.20879120879121"/><rect x="561.7582417582416" y="591.4849856026326" height="0" width="71.20879120879121"/><rect x="640.8791208791208" y="582.652490207051" height="0.7834359261331656" width="71.20879120879121"/></g><g class="layer" style="fill: rgb(166, 216, 84);"><rect x="7.912087912087884" y="594.7839427256456" height="0" width="71.20879120879121"/><rect x="87.03296703296701" y="599.528672427337" height="0" width="71.20879120879121"/><rect x="166.15384615384613" y="591.7970858067998" height="0" width="71.20879120879121"/><rect x="245.27472527472526" y="576.025641025641" height="8.461538461538453" width="71.20879120879121"/><rect x="324.3956043956044" y="589.4390988030979" height="0" width="71.20879120879121"/><rect x="403.5164835164835" y="590.8529525279815" height="1.1578541103820044" width="71.20879120879121"/><rect x="482.6373626373626" y="595.3058321479374" height="0" width="71.20879120879121"/><rect x="561.7582417582416" y="591.4849856026326" height="0.4936240230358635" width="71.20879120879121"/><rect x="640.8791208791208" y="597.0900951315053" height="0.8953553441522217" width="71.20879120879121"/></g><g class="layer" style="fill: rgb(231, 138, 195);"><rect x="7.912087912087884" y="532.0378419841472" height="0" width="71.20879120879121"/><rect x="87.03296703296701" y="558.6410054988216" height="0" width="71.20879120879121"/><rect x="166.15384615384613" y="537.8305450620616" height="0.8634646519158196" width="71.20879120879121"/><rect x="245.27472527472526" y="489.1025641025641" height="19.61538461538464" width="71.20879120879121"/><rect x="324.3956043956044" y="546.4914339356958" height="8.730344989439118" width="71.20879120879121"/><rect x="403.5164835164835" y="489.5407178695484" height="12.273253570050201" width="71.20879120879121"/><rect x="482.6373626373626" y="547.9374110953058" height="0" width="71.20879120879121"/><rect x="561.7582417582416" y="575.8124228712464" height="1.4808720691073631" width="71.20879120879121"/><rect x="640.8791208791208" y="572.1320649132624" height="1.4549524342473887" width="71.20879120879121"/></g><g class="layer" style="fill: rgb(229, 196, 148);"><rect x="7.912087912087884" y="596.77831756584" height="0" width="71.20879120879121"/><rect x="87.03296703296701" y="599.528672427337" height="0" width="71.20879120879121"/><rect x="166.15384615384613" y="594.1716135995682" height="0" width="71.20879120879121"/><rect x="245.27472527472526" y="584.4871794871794" height="0" width="71.20879120879121"/><rect x="324.3956043956044" y="589.4390988030979" height="4.365172494719559" width="71.20879120879121"/><rect x="403.5164835164835" y="592.0108066383635" height="0" width="71.20879120879121"/><rect x="482.6373626373626" y="597.5817923186344" height="0" width="71.20879120879121"/><rect x="561.7582417582416" y="591.9786096256685" height="1.604278074866329" width="71.20879120879121"/><rect x="640.8791208791208" y="597.9854504756576" height="0" width="71.20879120879121"/></g><g class="layer" style="fill: rgb(141, 160, 203);"><rect x="7.912087912087884" y="594.4771158271542" height="0.30682689849140843" width="71.20879120879121"/><rect x="87.03296703296701" y="599.528672427337" height="0" width="71.20879120879121"/><rect x="166.15384615384613" y="591.7970858067998" height="0" width="71.20879120879121"/><rect x="245.27472527472526" y="569.6153846153846" height="4.743589743589723" width="71.20879120879121"/><rect x="324.3956043956044" y="586.7636704998827" height="0" width="71.20879120879121"/><rect x="403.5164835164835" y="570.3589347742185" height="10.30490158240059" width="71.20879120879121"/><rect x="482.6373626373626" y="595.3058321479374" height="0" width="71.20879120879121"/><rect x="561.7582417582416" y="591.4849856026326" height="0" width="71.20879120879121"/><rect x="640.8791208791208" y="597.0900951315053" height="0" width="71.20879120879121"/></g><g class="layer" style="fill: rgb(102, 194, 165);"><rect x="7.912087912087884" y="596.77831756584" height="0" width="71.20879120879121"/><rect x="87.03296703296701" y="599.528672427337" height="0" width="71.20879120879121"/><rect x="166.15384615384613" y="594.8192120885051" height="0" width="71.20879120879121"/><rect x="245.27472527472526" y="584.4871794871794" height="5" width="71.20879120879121"/><rect x="324.3956043956044" y="593.8042712978174" height="0" width="71.20879120879121"/><rect x="403.5164835164835" y="592.821304515631" height="0" width="71.20879120879121"/><rect x="482.6373626373626" y="597.5817923186344" height="0" width="71.20879120879121"/><rect x="561.7582417582416" y="597.2850678733032" height="0" width="71.20879120879121"/><rect x="640.8791208791208" y="597.9854504756576" height="0" width="71.20879120879121"/></g><g class="layer" style="fill: rgb(255, 217, 47);"><rect x="7.912087912087884" y="594.7839427256456" height="1.9943748401943822" width="71.20879120879121"/><rect x="87.03296703296701" y="599.528672427337" height="0" width="71.20879120879121"/><rect x="166.15384615384613" y="591.7970858067998" height="2.37452779276839" width="71.20879120879121"/><rect x="245.27472527472526" y="584.4871794871794" height="0" width="71.20879120879121"/><rect x="324.3956043956044" y="589.4390988030979" height="0" width="71.20879120879121"/><rect x="403.5164835164835" y="592.0108066383635" height="0" width="71.20879120879121"/><rect x="482.6373626373626" y="595.3058321479374" height="2.275960170696976" width="71.20879120879121"/><rect x="561.7582417582416" y="591.9786096256685" height="0" width="71.20879120879121"/><rect x="640.8791208791208" y="597.9854504756576" height="0" width="71.20879120879121"/></g><g class="layer" style="fill: rgb(231, 138, 195);"><rect x="7.912087912087884" y="597.5453848120685" height="0" width="71.20879120879121"/><rect x="87.03296703296701" y="600" height="0" width="71.20879120879121"/><rect x="166.15384615384613" y="595.6826767404209" height="0" width="71.20879120879121"/><rect x="245.27472527472526" y="592.1794871794872" height="3.0769230769230944" width="71.20879120879121"/><rect x="324.3956043956044" y="594.6491433935696" height="0" width="71.20879120879121"/><rect x="403.5164835164835" y="592.821304515631" height="0" width="71.20879120879121"/><rect x="482.6373626373626" y="599.2887624466572" height="0" width="71.20879120879121"/><rect x="561.7582417582416" y="597.2850678733032" height="0" width="71.20879120879121"/><rect x="640.8791208791208" y="597.9854504756576" height="0" width="71.20879120879121"/></g><g class="layer" style="fill: rgb(179, 179, 179);"><rect x="7.912087912087884" y="596.77831756584" height="0" width="71.20879120879121"/><rect x="87.03296703296701" y="599.528672427337" height="0" width="71.20879120879121"/><rect x="166.15384615384613" y="594.1716135995682" height="0.6475984889368647" width="71.20879120879121"/><rect x="245.27472527472526" y="584.4871794871794" height="0" width="71.20879120879121"/><rect x="324.3956043956044" y="593.8042712978174" height="0" width="71.20879120879121"/><rect x="403.5164835164835" y="592.0108066383635" height="0.810497877267494" width="71.20879120879121"/><rect x="482.6373626373626" y="597.5817923186344" height="0" width="71.20879120879121"/><rect x="561.7582417582416" y="593.5828877005348" height="3.702180172768408" width="71.20879120879121"/><rect x="640.8791208791208" y="597.9854504756576" height="0" width="71.20879120879121"/></g><g class="layer" style="fill: rgb(141, 160, 203);"><rect x="7.912087912087884" y="597.5453848120685" height="0" width="71.20879120879121"/><rect x="87.03296703296701" y="600" height="0" width="71.20879120879121"/><rect x="166.15384615384613" y="595.6826767404209" height="0" width="71.20879120879121"/><rect x="245.27472527472526" y="589.4871794871794" height="2.692307692307736" width="71.20879120879121"/><rect x="324.3956043956044" y="593.8042712978174" height="0.84487209575218" width="71.20879120879121"/><rect x="403.5164835164835" y="592.821304515631" height="0" width="71.20879120879121"/><rect x="482.6373626373626" y="599.2887624466572" height="0" width="71.20879120879121"/><rect x="561.7582417582416" y="597.2850678733032" height="0" width="71.20879120879121"/><rect x="640.8791208791208" y="597.9854504756576" height="0" width="71.20879120879121"/></g><g class="layer" style="fill: rgb(252, 141, 98);"><rect x="7.912087912087884" y="596.77831756584" height="0.7670672462285211" width="71.20879120879121"/><rect x="87.03296703296701" y="599.528672427337" height="0.47132757266297176" width="71.20879120879121"/><rect x="166.15384615384613" y="594.8192120885051" height="0.8634646519158196" width="71.20879120879121"/><rect x="245.27472527472526" y="589.4871794871794" height="0" width="71.20879120879121"/><rect x="324.3956043956044" y="593.8042712978174" height="0" width="71.20879120879121"/><rect x="403.5164835164835" y="592.821304515631" height="0" width="71.20879120879121"/><rect x="482.6373626373626" y="597.5817923186344" height="1.7069701280228173" width="71.20879120879121"/><rect x="561.7582417582416" y="597.2850678733032" height="0" width="71.20879120879121"/><rect x="640.8791208791208" y="597.9854504756576" height="0" width="71.20879120879121"/></g><g class="layer" style="fill: rgb(179, 179, 179);"><rect x="7.912087912087884" y="600" height="0" width="71.20879120879121"/><rect x="87.03296703296701" y="600" height="0" width="71.20879120879121"/><rect x="166.15384615384613" y="596.3302752293578" height="0" width="71.20879120879121"/><rect x="245.27472527472526" y="596.2820512820513" height="0" width="71.20879120879121"/><rect x="324.3956043956044" y="595.2123914574044" height="2.8162403191739713" width="71.20879120879121"/><rect x="403.5164835164835" y="592.821304515631" height="0" width="71.20879120879121"/><rect x="482.6373626373626" y="599.2887624466572" height="0" width="71.20879120879121"/><rect x="561.7582417582416" y="599.1361579596874" height="0" width="71.20879120879121"/><rect x="640.8791208791208" y="600" height="0" width="71.20879120879121"/></g><g class="layer" style="fill: rgb(252, 141, 98);"><rect x="7.912087912087884" y="600" height="0" width="71.20879120879121"/><rect x="87.03296703296701" y="600" height="0" width="71.20879120879121"/><rect x="166.15384615384613" y="596.3302752293578" height="0" width="71.20879120879121"/><rect x="245.27472527472526" y="596.2820512820513" height="0" width="71.20879120879121"/><rect x="324.3956043956044" y="598.0286317765783" height="0" width="71.20879120879121"/><rect x="403.5164835164835" y="594.9054419143188" height="2.0841373986877443" width="71.20879120879121"/><rect x="482.6373626373626" y="599.2887624466572" height="0" width="71.20879120879121"/><rect x="561.7582417582416" y="599.1361579596874" height="0" width="71.20879120879121"/><rect x="640.8791208791208" y="600" height="0" width="71.20879120879121"/></g><g class="layer" style="fill: rgb(102, 194, 165);"><rect x="7.912087912087884" y="600" height="0" width="71.20879120879121"/><rect x="87.03296703296701" y="600" height="0" width="71.20879120879121"/><rect x="166.15384615384613" y="596.3302752293578" height="0" width="71.20879120879121"/><rect x="245.27472527472526" y="596.2820512820513" height="0" width="71.20879120879121"/><rect x="324.3956043956044" y="598.0286317765783" height="0" width="71.20879120879121"/><rect x="403.5164835164835" y="592.821304515631" height="2.0841373986877443" width="71.20879120879121"/><rect x="482.6373626373626" y="599.2887624466572" height="0" width="71.20879120879121"/><rect x="561.7582417582416" y="599.1361579596874" height="0" width="71.20879120879121"/><rect x="640.8791208791208" y="600" height="0" width="71.20879120879121"/></g><g class="layer" style="fill: rgb(229, 196, 148);"><rect x="7.912087912087884" y="597.5453848120685" height="2.454615187931495" width="71.20879120879121"/><rect x="87.03296703296701" y="600" height="0" width="71.20879120879121"/><rect x="166.15384615384613" y="595.6826767404209" height="0.6475984889368647" width="71.20879120879121"/><rect x="245.27472527472526" y="596.2820512820513" height="0" width="71.20879120879121"/><rect x="324.3956043956044" y="595.2123914574044" height="0" width="71.20879120879121"/><rect x="403.5164835164835" y="592.821304515631" height="0" width="71.20879120879121"/><rect x="482.6373626373626" y="599.2887624466572" height="0" width="71.20879120879121"/><rect x="561.7582417582416" y="599.1361579596874" height="0" width="71.20879120879121"/><rect x="640.8791208791208" y="600" height="0" width="71.20879120879121"/></g><g class="layer" style="fill: rgb(141, 160, 203);"><rect x="7.912087912087884" y="600" height="0" width="71.20879120879121"/><rect x="87.03296703296701" y="600" height="0" width="71.20879120879121"/><rect x="166.15384615384613" y="596.3302752293578" height="1.6189962223421617" width="71.20879120879121"/><rect x="245.27472527472526" y="596.2820512820513" height="0" width="71.20879120879121"/><rect x="324.3956043956044" y="598.0286317765783" height="0" width="71.20879120879121"/><rect x="403.5164835164835" y="596.9895793130065" height="0" width="71.20879120879121"/><rect x="482.6373626373626" y="599.2887624466572" height="0" width="71.20879120879121"/><rect x="561.7582417582416" y="599.1361579596874" height="0" width="71.20879120879121"/><rect x="640.8791208791208" y="600" height="0" width="71.20879120879121"/></g><g class="layer" style="fill: rgb(255, 217, 47);"><rect x="7.912087912087884" y="597.5453848120685" height="0" width="71.20879120879121"/><rect x="87.03296703296701" y="600" height="0" width="71.20879120879121"/><rect x="166.15384615384613" y="595.6826767404209" height="0" width="71.20879120879121"/><rect x="245.27472527472526" y="596.2820512820513" height="0" width="71.20879120879121"/><rect x="324.3956043956044" y="595.2123914574044" height="0" width="71.20879120879121"/><rect x="403.5164835164835" y="592.821304515631" height="0" width="71.20879120879121"/><rect x="482.6373626373626" y="599.2887624466572" height="0" width="71.20879120879121"/><rect x="561.7582417582416" y="597.2850678733032" height="1.851090086384147" width="71.20879120879121"/><rect x="640.8791208791208" y="599.2165640738668" height="0.7834359261331656" width="71.20879120879121"/></g><g class="layer" style="fill: rgb(166, 216, 84);"><rect x="7.912087912087884" y="600" height="0" width="71.20879120879121"/><rect x="87.03296703296701" y="600" height="0" width="71.20879120879121"/><rect x="166.15384615384613" y="598.3810037776578" height="0" width="71.20879120879121"/><rect x="245.27472527472526" y="597.5641025641025" height="0" width="71.20879120879121"/><rect x="324.3956043956044" y="598.0286317765783" height="0" width="71.20879120879121"/><rect x="403.5164835164835" y="596.9895793130065" height="1.620995754534988" width="71.20879120879121"/><rect x="482.6373626373626" y="599.2887624466572" height="0" width="71.20879120879121"/><rect x="561.7582417582416" y="599.1361579596874" height="0" width="71.20879120879121"/><rect x="640.8791208791208" y="600" height="0" width="71.20879120879121"/></g><g class="layer" style="fill: rgb(166, 216, 84);"><rect x="7.912087912087884" y="597.5453848120685" height="0" width="71.20879120879121"/><rect x="87.03296703296701" y="600" height="0" width="71.20879120879121"/><rect x="166.15384615384613" y="595.6826767404209" height="0" width="71.20879120879121"/><rect x="245.27472527472526" y="595.2564102564103" height="1.0256410256409936" width="71.20879120879121"/><rect x="324.3956043956044" y="594.6491433935696" height="0.5632480638347488" width="71.20879120879121"/><rect x="403.5164835164835" y="592.821304515631" height="0" width="71.20879120879121"/><rect x="482.6373626373626" y="599.2887624466572" height="0" width="71.20879120879121"/><rect x="561.7582417582416" y="597.2850678733032" height="0" width="71.20879120879121"/><rect x="640.8791208791208" y="597.9854504756576" height="1.2311135982092765" width="71.20879120879121"/></g><g class="layer" style="fill: rgb(229, 196, 148);"><rect x="7.912087912087884" y="600" height="0" width="71.20879120879121"/><rect x="87.03296703296701" y="600" height="0" width="71.20879120879121"/><rect x="166.15384615384613" y="598.3810037776578" height="0" width="71.20879120879121"/><rect x="245.27472527472526" y="598.5897435897435" height="1.4102564102564656" width="71.20879120879121"/><rect x="324.3956043956044" y="598.0286317765783" height="0" width="71.20879120879121"/><rect x="403.5164835164835" y="598.9579313006561" height="0" width="71.20879120879121"/><rect x="482.6373626373626" y="599.2887624466572" height="0" width="71.20879120879121"/><rect x="561.7582417582416" y="599.1361579596874" height="0" width="71.20879120879121"/><rect x="640.8791208791208" y="600" height="0" width="71.20879120879121"/></g><g class="layer" style="fill: rgb(231, 138, 195);"><rect x="7.912087912087884" y="600" height="0" width="71.20879120879121"/><rect x="87.03296703296701" y="600" height="0" width="71.20879120879121"/><rect x="166.15384615384613" y="597.9492714516999" height="0.4317323259579098" width="71.20879120879121"/><rect x="245.27472527472526" y="596.2820512820513" height="1.2820512820512704" width="71.20879120879121"/><rect x="324.3956043956044" y="598.0286317765783" height="0" width="71.20879120879121"/><rect x="403.5164835164835" y="596.9895793130065" height="0" width="71.20879120879121"/><rect x="482.6373626373626" y="599.2887624466572" height="0" width="71.20879120879121"/><rect x="561.7582417582416" y="599.1361579596874" height="0" width="71.20879120879121"/><rect x="640.8791208791208" y="600" height="0" width="71.20879120879121"/></g><g class="layer" style="fill: rgb(255, 217, 47);"><rect x="7.912087912087884" y="600" height="0" width="71.20879120879121"/><rect x="87.03296703296701" y="600" height="0" width="71.20879120879121"/><rect x="166.15384615384613" y="598.3810037776578" height="0" width="71.20879120879121"/><rect x="245.27472527472526" y="597.5641025641025" height="1.0256410256409936" width="71.20879120879121"/><rect x="324.3956043956044" y="598.0286317765783" height="0" width="71.20879120879121"/><rect x="403.5164835164835" y="598.6105750675415" height="0.34735623311462405" width="71.20879120879121"/><rect x="482.6373626373626" y="599.2887624466572" height="0" width="71.20879120879121"/><rect x="561.7582417582416" y="599.1361579596874" height="0" width="71.20879120879121"/><rect x="640.8791208791208" y="600" height="0" width="71.20879120879121"/></g><g class="layer" style="fill: rgb(102, 194, 165);"><rect x="7.912087912087884" y="600" height="0" width="71.20879120879121"/><rect x="87.03296703296701" y="600" height="0" width="71.20879120879121"/><rect x="166.15384615384613" y="598.9206691851052" height="0.7555315704263421" width="71.20879120879121"/><rect x="245.27472527472526" y="600" height="0" width="71.20879120879121"/><rect x="324.3956043956044" y="598.0286317765783" height="0" width="71.20879120879121"/><rect x="403.5164835164835" y="598.9579313006561" height="0" width="71.20879120879121"/><rect x="482.6373626373626" y="600" height="0" width="71.20879120879121"/><rect x="561.7582417582416" y="599.1361579596874" height="0" width="71.20879120879121"/><rect x="640.8791208791208" y="600" height="0" width="71.20879120879121"/></g><g class="layer" style="fill: rgb(252, 141, 98);"><rect x="7.912087912087884" y="600" height="0" width="71.20879120879121"/><rect x="87.03296703296701" y="600" height="0" width="71.20879120879121"/><rect x="166.15384615384613" y="599.6762007555316" height="0" width="71.20879120879121"/><rect x="245.27472527472526" y="600" height="0" width="71.20879120879121"/><rect x="324.3956043956044" y="598.0286317765783" height="0.8448720957520663" width="71.20879120879121"/><rect x="403.5164835164835" y="598.9579313006561" height="0" width="71.20879120879121"/><rect x="482.6373626373626" y="600" height="0" width="71.20879120879121"/><rect x="561.7582417582416" y="599.1361579596874" height="0" width="71.20879120879121"/><rect x="640.8791208791208" y="600" height="0" width="71.20879120879121"/></g><g class="layer" style="fill: rgb(179, 179, 179);"><rect x="7.912087912087884" y="600" height="0" width="71.20879120879121"/><rect x="87.03296703296701" y="600" height="0" width="71.20879120879121"/><rect x="166.15384615384613" y="598.3810037776578" height="0.5396654074473872" width="71.20879120879121"/><rect x="245.27472527472526" y="600" height="0" width="71.20879120879121"/><rect x="324.3956043956044" y="598.0286317765783" height="0" width="71.20879120879121"/><rect x="403.5164835164835" y="598.9579313006561" height="0" width="71.20879120879121"/><rect x="482.6373626373626" y="599.2887624466572" height="0.7112375533428121" width="71.20879120879121"/><rect x="561.7582417582416" y="599.1361579596874" height="0" width="71.20879120879121"/><rect x="640.8791208791208" y="600" height="0" width="71.20879120879121"/></g><g class="layer" style="fill: rgb(166, 216, 84);"><rect x="7.912087912087884" y="600" height="0" width="71.20879120879121"/><rect x="87.03296703296701" y="600" height="0" width="71.20879120879121"/><rect x="166.15384615384613" y="599.6762007555316" height="0" width="71.20879120879121"/><rect x="245.27472527472526" y="600" height="0" width="71.20879120879121"/><rect x="324.3956043956044" y="599.5775639521239" height="0" width="71.20879120879121"/><rect x="403.5164835164835" y="599.5368583558471" height="0" width="71.20879120879121"/><rect x="482.6373626373626" y="600" height="0" width="71.20879120879121"/><rect x="561.7582417582416" y="599.1361579596874" height="0.6170300287947157" width="71.20879120879121"/><rect x="640.8791208791208" y="600" height="0" width="71.20879120879121"/></g><g class="layer" style="fill: rgb(231, 138, 195);"><rect x="7.912087912087884" y="600" height="0" width="71.20879120879121"/><rect x="87.03296703296701" y="600" height="0" width="71.20879120879121"/><rect x="166.15384615384613" y="599.6762007555316" height="0" width="71.20879120879121"/><rect x="245.27472527472526" y="600" height="0" width="71.20879120879121"/><rect x="324.3956043956044" y="599.5775639521239" height="0" width="71.20879120879121"/><rect x="403.5164835164835" y="598.9579313006561" height="0.5789270551910022" width="71.20879120879121"/><rect x="482.6373626373626" y="600" height="0" width="71.20879120879121"/><rect x="561.7582417582416" y="599.1361579596874" height="0" width="71.20879120879121"/><rect x="640.8791208791208" y="600" height="0" width="71.20879120879121"/></g><g class="layer" style="fill: rgb(141, 160, 203);"><rect x="7.912087912087884" y="600" height="0" width="71.20879120879121"/><rect x="87.03296703296701" y="600" height="0" width="71.20879120879121"/><rect x="166.15384615384613" y="599.6762007555316" height="0" width="71.20879120879121"/><rect x="245.27472527472526" y="600" height="0" width="71.20879120879121"/><rect x="324.3956043956044" y="598.8735038723304" height="0.7040600797935213" width="71.20879120879121"/><rect x="403.5164835164835" y="598.9579313006561" height="0" width="71.20879120879121"/><rect x="482.6373626373626" y="600" height="0" width="71.20879120879121"/><rect x="561.7582417582416" y="599.1361579596874" height="0" width="71.20879120879121"/><rect x="640.8791208791208" y="600" height="0" width="71.20879120879121"/></g><g class="layer" style="fill: rgb(255, 217, 47);"><rect x="7.912087912087884" y="600" height="0" width="71.20879120879121"/><rect x="87.03296703296701" y="600" height="0" width="71.20879120879121"/><rect x="166.15384615384613" y="599.6762007555316" height="0" width="71.20879120879121"/><rect x="245.27472527472526" y="600" height="0" width="71.20879120879121"/><rect x="324.3956043956044" y="599.5775639521239" height="0" width="71.20879120879121"/><rect x="403.5164835164835" y="599.5368583558471" height="0.46314164415286996" width="71.20879120879121"/><rect x="482.6373626373626" y="600" height="0" width="71.20879120879121"/><rect x="561.7582417582416" y="599.7531879884821" height="0" width="71.20879120879121"/><rect x="640.8791208791208" y="600" height="0" width="71.20879120879121"/></g><g class="layer" style="fill: rgb(179, 179, 179);"><rect x="7.912087912087884" y="600" height="0" width="71.20879120879121"/><rect x="87.03296703296701" y="600" height="0" width="71.20879120879121"/><rect x="166.15384615384613" y="599.6762007555316" height="0.32379924446843233" width="71.20879120879121"/><rect x="245.27472527472526" y="600" height="0" width="71.20879120879121"/><rect x="324.3956043956044" y="600" height="0" width="71.20879120879121"/><rect x="403.5164835164835" y="600" height="0" width="71.20879120879121"/><rect x="482.6373626373626" y="600" height="0" width="71.20879120879121"/><rect x="561.7582417582416" y="599.7531879884821" height="0" width="71.20879120879121"/><rect x="640.8791208791208" y="600" height="0" width="71.20879120879121"/></g><g class="layer" style="fill: rgb(229, 196, 148);"><rect x="7.912087912087884" y="600" height="0" width="71.20879120879121"/><rect x="87.03296703296701" y="600" height="0" width="71.20879120879121"/><rect x="166.15384615384613" y="599.6762007555316" height="0" width="71.20879120879121"/><rect x="245.27472527472526" y="600" height="0" width="71.20879120879121"/><rect x="324.3956043956044" y="599.5775639521239" height="0.42243604787609" width="71.20879120879121"/><rect x="403.5164835164835" y="600" height="0" width="71.20879120879121"/><rect x="482.6373626373626" y="600" height="0" width="71.20879120879121"/><rect x="561.7582417582416" y="599.7531879884821" height="0" width="71.20879120879121"/><rect x="640.8791208791208" y="600" height="0" width="71.20879120879121"/></g><g class="layer" style="fill: rgb(102, 194, 165);"><rect x="7.912087912087884" y="600" height="0" width="71.20879120879121"/><rect x="87.03296703296701" y="600" height="0" width="71.20879120879121"/><rect x="166.15384615384613" y="600" height="0" width="71.20879120879121"/><rect x="245.27472527472526" y="600" height="0" width="71.20879120879121"/><rect x="324.3956043956044" y="600" height="0" width="71.20879120879121"/><rect x="403.5164835164835" y="600" height="0" width="71.20879120879121"/><rect x="482.6373626373626" y="600" height="0" width="71.20879120879121"/><rect x="561.7582417582416" y="599.7531879884821" height="0.24681201151793175" width="71.20879120879121"/><rect x="640.8791208791208" y="600" height="0" width="71.20879120879121"/></g></g></svg>