<?xml version="1.0" standalone="no"?>
<svg xmlns="http://www.w3.org/2000/svg" width="315.32501220703125" height="1160"><g class="legend" id="id56" transform="translate(0,1120)" style="font: 10px sans-serif;"><rect width="18" height="18" x="0" style="fill: rgb(102, 194, 165);"/><text y="9" dy=".35em" text-anchor="start" x="24">d__Archaea;p__Nanoarchaeota;c__Nanoarchaeia</text></g><g class="legend" id="id54" transform="translate(0,1100)" style="font: 10px sans-serif;"><rect width="18" height="18" x="0" style="fill: rgb(179, 179, 179);"/><text y="9" dy=".35em" text-anchor="start" x="24">d__Archaea;p__Thermoplasmatota;c__Thermoplasmata_1773</text></g><g class="legend" id="id55" transform="translate(0,1080)" style="font: 10px sans-serif;"><rect width="18" height="18" x="0" style="fill: rgb(229, 196, 148);"/><text y="9" dy=".35em" text-anchor="start" x="24">d__Bacteria;p__CLD3;c__CLD3</text></g><g class="legend" id="id53" transform="translate(0,1060)" style="font: 10px sans-serif;"><rect width="18" height="18" x="0" style="fill: rgb(255, 217, 47);"/><text y="9" dy=".35em" text-anchor="start" x="24">Unassigned;__;__</text></g><g class="legend" id="id50" transform="translate(0,1040)" style="font: 10px sans-serif;"><rect width="18" height="18" x="0" style="fill: rgb(166, 216, 84);"/><text y="9" dy=".35em" text-anchor="start" x="24">d__Bacteria;p__Bdellovibrionota_E;c__Bdellovibrionia_A_470743</text></g><g class="legend" id="id51" transform="translate(0,1020)" style="font: 10px sans-serif;"><rect width="18" height="18" x="0" style="fill: rgb(231, 138, 195);"/><text y="9" dy=".35em" text-anchor="start" x="24">d__Bacteria;p__Patescibacteria;c__ABY1</text></g><g class="legend" id="id52" transform="translate(0,1000)" style="font: 10px sans-serif;"><rect width="18" height="18" x="0" style="fill: rgb(141, 160, 203);"/><text y="9" dy=".35em" text-anchor="start" x="24">d__Bacteria;p__Acidobacteriota;c__HRBIN11</text></g><g class="legend" id="id48" transform="translate(0,980)" style="font: 10px sans-serif;"><rect width="18" height="18" x="0" style="fill: rgb(252, 141, 98);"/><text y="9" dy=".35em" text-anchor="start" x="24">d__Bacteria;p__Planctomycetota;c__UBA1135</text></g><g class="legend" id="id47" transform="translate(0,960)" style="font: 10px sans-serif;"><rect width="18" height="18" x="0" style="fill: rgb(102, 194, 165);"/><text y="9" dy=".35em" text-anchor="start" x="24">d__Bacteria;p__Acidobacteriota;c__Blastocatellia</text></g><g class="legend" id="id49" transform="translate(0,940)" style="font: 10px sans-serif;"><rect width="18" height="18" x="0" style="fill: rgb(179, 179, 179);"/><text y="9" dy=".35em" text-anchor="start" x="24">d__Bacteria;p__Patescibacteria;c__JAEDAM01</text></g><g class="legend" id="id44" transform="translate(0,920)" style="font: 10px sans-serif;"><rect width="18" height="18" x="0" style="fill: rgb(229, 196, 148);"/><text y="9" dy=".35em" text-anchor="start" x="24">d__Bacteria;p__Planctomycetota;__</text></g><g class="legend" id="id46" transform="translate(0,900)" style="font: 10px sans-serif;"><rect width="18" height="18" x="0" style="fill: rgb(255, 217, 47);"/><text y="9" dy=".35em" text-anchor="start" x="24">d__Bacteria;p__Acidobacteriota;c__Acidobacteriae</text></g><g class="legend" id="id42" transform="translate(0,880)" style="font: 10px sans-serif;"><rect width="18" height="18" x="0" style="fill: rgb(166, 216, 84);"/><text y="9" dy=".35em" text-anchor="start" x="24">d__Bacteria;p__Acidobacteriota;__</text></g><g class="legend" id="id45" transform="translate(0,860)" style="font: 10px sans-serif;"><rect width="18" height="18" x="0" style="fill: rgb(231, 138, 195);"/><text y="9" dy=".35em" text-anchor="start" x="24">d__Bacteria;p__Proteobacteria;__</text></g><g class="legend" id="id40" transform="translate(0,840)" style="font: 10px sans-serif;"><rect width="18" height="18" x="0" style="fill: rgb(141, 160, 203);"/><text y="9" dy=".35em" text-anchor="start" x="24">d__Bacteria;p__Desulfobacterota_B;c__Binatia</text></g><g class="legend" id="id37" transform="translate(0,820)" style="font: 10px sans-serif;"><rect width="18" height="18" x="0" style="fill: rgb(252, 141, 98);"/><text y="9" dy=".35em" text-anchor="start" x="24">d__Bacteria;p__Acidobacteriota;c__Thermoanaerobaculia</text></g><g class="legend" id="id38" transform="translate(0,800)" style="font: 10px sans-serif;"><rect width="18" height="18" x="0" style="fill: rgb(102, 194, 165);"/><text y="9" dy=".35em" text-anchor="start" x="24">d__Bacteria;p__Krumholzibacteriota;c__Krumholzibacteria</text></g><g class="legend" id="id36" transform="translate(0,780)" style="font: 10px sans-serif;"><rect width="18" height="18" x="0" style="fill: rgb(179, 179, 179);"/><text y="9" dy=".35em" text-anchor="start" x="24">d__Bacteria;p__Patescibacteria;c__UBA1384</text></g><g class="legend" id="id39" transform="translate(0,760)" style="font: 10px sans-serif;"><rect width="18" height="18" x="0" style="fill: rgb(229, 196, 148);"/><text y="9" dy=".35em" text-anchor="start" x="24">d__Bacteria;p__Elusimicrobiota;c__Endomicrobia</text></g><g class="legend" id="id41" transform="translate(0,740)" style="font: 10px sans-serif;"><rect width="18" height="18" x="0" style="fill: rgb(255, 217, 47);"/><text y="9" dy=".35em" text-anchor="start" x="24">d__Bacteria;p__Verrucomicrobiota;c__Verrucomicrobiae</text></g><g class="legend" id="id43" transform="translate(0,720)" style="font: 10px sans-serif;"><rect width="18" height="18" x="0" style="fill: rgb(166, 216, 84);"/><text y="9" dy=".35em" text-anchor="start" x="24">d__Bacteria;p__Dependentiae;c__Babeliae</text></g><g class="legend" id="id32" transform="translate(0,700)" style="font: 10px sans-serif;"><rect width="18" height="18" x="0" style="fill: rgb(231, 138, 195);"/><text y="9" dy=".35em" text-anchor="start" x="24">d__Bacteria;p__Bacteroidota;c__UBA10030</text></g><g class="legend" id="id34" transform="translate(0,680)" style="font: 10px sans-serif;"><rect width="18" height="18" x="0" style="fill: rgb(141, 160, 203);"/><text y="9" dy=".35em" text-anchor="start" x="24">d__Bacteria;p__Planctomycetota;c__Phycisphaerae</text></g><g class="legend" id="id35" transform="translate(0,660)" style="font: 10px sans-serif;"><rect width="18" height="18" x="0" style="fill: rgb(252, 141, 98);"/><text y="9" dy=".35em" text-anchor="start" x="24">d__Bacteria;p__Desulfobacterota_I;c__Desulfovibrionia</text></g><g class="legend" id="id30" transform="translate(0,640)" style="font: 10px sans-serif;"><rect width="18" height="18" x="0" style="fill: rgb(102, 194, 165);"/><text y="9" dy=".35em" text-anchor="start" x="24">d__Bacteria;p__Zixibacteria;c__MSB-5A5_778960</text></g><g class="legend" id="id33" transform="translate(0,620)" style="font: 10px sans-serif;"><rect width="18" height="18" x="0" style="fill: rgb(179, 179, 179);"/><text y="9" dy=".35em" text-anchor="start" x="24">d__Bacteria;p__Eisenbacteria;c__RBG-16-71-46</text></g><g class="legend" id="id28" transform="translate(0,600)" style="font: 10px sans-serif;"><rect width="18" height="18" x="0" style="fill: rgb(229, 196, 148);"/><text y="9" dy=".35em" text-anchor="start" x="24">d__Bacteria;p__Myxococcota_A_473307;c__UBA9160</text></g><g class="legend" id="id31" transform="translate(0,580)" style="font: 10px sans-serif;"><rect width="18" height="18" x="0" style="fill: rgb(255, 217, 47);"/><text y="9" dy=".35em" text-anchor="start" x="24">d__Bacteria;p__Patescibacteria;c__Saccharimonadia</text></g><g class="legend" id="id26" transform="translate(0,560)" style="font: 10px sans-serif;"><rect width="18" height="18" x="0" style="fill: rgb(166, 216, 84);"/><text y="9" dy=".35em" text-anchor="start" x="24">d__Bacteria;p__Chlamydiota;c__Chlamydiia</text></g><g class="legend" id="id19" transform="translate(0,540)" style="font: 10px sans-serif;"><rect width="18" height="18" x="0" style="fill: rgb(231, 138, 195);"/><text y="9" dy=".35em" text-anchor="start" x="24">d__Bacteria;p__Chloroflexota;c__Limnocylindria</text></g><g class="legend" id="id29" transform="translate(0,520)" style="font: 10px sans-serif;"><rect width="18" height="18" x="0" style="fill: rgb(141, 160, 203);"/><text y="9" dy=".35em" text-anchor="start" x="24">d__Bacteria;p__Methylomirabilota;c__Methylomirabilia</text></g><g class="legend" id="id23" transform="translate(0,500)" style="font: 10px sans-serif;"><rect width="18" height="18" x="0" style="fill: rgb(252, 141, 98);"/><text y="9" dy=".35em" text-anchor="start" x="24">d__Bacteria;p__Spirochaetota;c__Spirochaetia</text></g><g class="legend" id="id15" transform="translate(0,480)" style="font: 10px sans-serif;"><rect width="18" height="18" x="0" style="fill: rgb(102, 194, 165);"/><text y="9" dy=".35em" text-anchor="start" x="24">d__Bacteria;p__Patescibacteria;c__Paceibacteria</text></g><g class="legend" id="id14" transform="translate(0,460)" style="font: 10px sans-serif;"><rect width="18" height="18" x="0" style="fill: rgb(179, 179, 179);"/><text y="9" dy=".35em" text-anchor="start" x="24">d__Bacteria;p__Desulfobacterota_I;c__Desulfobulbia</text></g><g class="legend" id="id16" transform="translate(0,440)" style="font: 10px sans-serif;"><rect width="18" height="18" x="0" style="fill: rgb(229, 196, 148);"/><text y="9" dy=".35em" text-anchor="start" x="24">d__Bacteria;p__Actinobacteriota;c__Acidimicrobiia_401430</text></g><g class="legend" id="id17" transform="translate(0,420)" style="font: 10px sans-serif;"><rect width="18" height="18" x="0" style="fill: rgb(255, 217, 47);"/><text y="9" dy=".35em" text-anchor="start" x="24">d__Bacteria;p__Chloroflexota;c__Chloroflexia</text></g><g class="legend" id="id24" transform="translate(0,400)" style="font: 10px sans-serif;"><rect width="18" height="18" x="0" style="fill: rgb(166, 216, 84);"/><text y="9" dy=".35em" text-anchor="start" x="24">d__Bacteria;p__Actinobacteriota;c__Thermoleophilia</text></g><g class="legend" id="id20" transform="translate(0,380)" style="font: 10px sans-serif;"><rect width="18" height="18" x="0" style="fill: rgb(231, 138, 195);"/><text y="9" dy=".35em" text-anchor="start" x="24">d__Bacteria;p__Firmicutes_C;c__Negativicutes</text></g><g class="legend" id="id25" transform="translate(0,360)" style="font: 10px sans-serif;"><rect width="18" height="18" x="0" style="fill: rgb(141, 160, 203);"/><text y="9" dy=".35em" text-anchor="start" x="24">d__Archaea;p__Thermoproteota;c__Nitrososphaeria_A</text></g><g class="legend" id="id13" transform="translate(0,340)" style="font: 10px sans-serif;"><rect width="18" height="18" x="0" style="fill: rgb(252, 141, 98);"/><text y="9" dy=".35em" text-anchor="start" x="24">d__Archaea;p__Methanobacteriota_A_1229;c__Methanobacteria</text></g><g class="legend" id="id21" transform="translate(0,320)" style="font: 10px sans-serif;"><rect width="18" height="18" x="0" style="fill: rgb(102, 194, 165);"/><text y="9" dy=".35em" text-anchor="start" x="24">d__Bacteria;p__Fusobacteriota;c__Fusobacteriia</text></g><g class="legend" id="id18" transform="translate(0,300)" style="font: 10px sans-serif;"><rect width="18" height="18" x="0" style="fill: rgb(179, 179, 179);"/><text y="9" dy=".35em" text-anchor="start" x="24">d__Bacteria;p__Campylobacterota;c__Campylobacteria</text></g><g class="legend" id="id12" transform="translate(0,280)" style="font: 10px sans-serif;"><rect width="18" height="18" x="0" style="fill: rgb(229, 196, 148);"/><text y="9" dy=".35em" text-anchor="start" x="24">d__Bacteria;p__Acidobacteriota;c__Vicinamibacteria</text></g><g class="legend" id="id11" transform="translate(0,260)" style="font: 10px sans-serif;"><rect width="18" height="18" x="0" style="fill: rgb(255, 217, 47);"/><text y="9" dy=".35em" text-anchor="start" x="24">d__Bacteria;p__Chloroflexota;c__Anaerolineae</text></g><g class="legend" id="id22" transform="translate(0,240)" style="font: 10px sans-serif;"><rect width="18" height="18" x="0" style="fill: rgb(166, 216, 84);"/><text y="9" dy=".35em" text-anchor="start" x="24">d__Bacteria;p__Actinobacteriota;__</text></g><g class="legend" id="id27" transform="translate(0,220)" style="font: 10px sans-serif;"><rect width="18" height="18" x="0" style="fill: rgb(231, 138, 195);"/><text y="9" dy=".35em" text-anchor="start" x="24">d__Bacteria;p__Planctomycetota;c__Planctomycetia</text></g><g class="legend" id="id10" transform="translate(0,200)" style="font: 10px sans-serif;"><rect width="18" height="18" x="0" style="fill: rgb(141, 160, 203);"/><text y="9" dy=".35em" text-anchor="start" x="24">d__Bacteria;p__Nitrospirota_A_437815;c__Nitrospiria</text></g><g class="legend" id="id8" transform="translate(0,180)" style="font: 10px sans-serif;"><rect width="18" height="18" x="0" style="fill: rgb(252, 141, 98);"/><text y="9" dy=".35em" text-anchor="start" x="24">d__Bacteria;p__Gemmatimonadota;c__Gemmatimonadetes</text></g><g class="legend" id="id7" transform="translate(0,160)" style="font: 10px sans-serif;"><rect width="18" height="18" x="0" style="fill: rgb(102, 194, 165);"/><text y="9" dy=".35em" text-anchor="start" x="24">d__Bacteria;p__Actinobacteriota;c__Coriobacteriia</text></g><g class="legend" id="id5" transform="translate(0,140)" style="font: 10px sans-serif;"><rect width="18" height="18" x="0" style="fill: rgb(179, 179, 179);"/><text y="9" dy=".35em" text-anchor="start" x="24">d__Bacteria;p__Synergistota;c__Synergistia</text></g><g class="legend" id="id9" transform="translate(0,120)" style="font: 10px sans-serif;"><rect width="18" height="18" x="0" style="fill: rgb(229, 196, 148);"/><text y="9" dy=".35em" text-anchor="start" x="24">d__Bacteria;__;__</text></g><g class="legend" id="id6" transform="translate(0,100)" style="font: 10px sans-serif;"><rect width="18" height="18" x="0" style="fill: rgb(255, 217, 47);"/><text y="9" dy=".35em" text-anchor="start" x="24">d__Bacteria;p__Bacteroidota;c__Bacteroidia</text></g><g class="legend" id="id3" transform="translate(0,80)" style="font: 10px sans-serif;"><rect width="18" height="18" x="0" style="fill: rgb(166, 216, 84);"/><text y="9" dy=".35em" text-anchor="start" x="24">d__Bacteria;p__Actinobacteriota;c__Actinomycetia</text></g><g class="legend" id="id4" transform="translate(0,60)" style="font: 10px sans-serif;"><rect width="18" height="18" x="0" style="fill: rgb(231, 138, 195);"/><text y="9" dy=".35em" text-anchor="start" x="24">d__Bacteria;p__Firmicutes_D;c__Bacilli</text></g><g class="legend" id="id0" transform="translate(0,40)" style="font: 10px sans-serif;"><rect width="18" height="18" x="0" style="fill: rgb(141, 160, 203);"/><text y="9" dy=".35em" text-anchor="start" x="24">d__Bacteria;p__Proteobacteria;c__Alphaproteobacteria</text></g><g class="legend" id="id1" transform="translate(0,20)" style="font: 10px sans-serif;"><rect width="18" height="18" x="0" style="fill: rgb(252, 141, 98);"/><text y="9" dy=".35em" text-anchor="start" x="24">d__Bacteria;p__Firmicutes_A;c__Clostridia_258483</text></g><g class="legend" id="id2" transform="translate(0,0)" style="font: 10px sans-serif;"><rect width="18" height="18" x="0" style="fill: rgb(102, 194, 165);"/><text y="9" dy=".35em" text-anchor="start" x="24">d__Bacteria;p__Proteobacteria;c__Gammaproteobacteria</text></g></svg>